/* XPM */
static char *_f1037cf36f74a28daf521fe5479d43ahdPrxUnw7zVOGxxH[] = {
/* columns rows colors chars-per-pixel */
"64 64 256 2 ",
"   c #180201",
".  c #2B0402",
"X  c #390B02",
"o  c #3C1308",
"O  c #3E2528",
"+  c #470900",
"@  c #590A01",
"#  c #481708",
"$  c #4B1E13",
"%  c #571604",
"&  c #690903",
"*  c #740702",
"=  c #671804",
"-  c #761819",
";  c #70180D",
":  c #562818",
">  c #4F2414",
",  c #682707",
"<  c #782707",
"1  c #7B3802",
"2  c #703116",
"3  c #52322C",
"4  c #6A3828",
"5  c #753929",
"6  c #6C322C",
"7  c #79470B",
"8  c #784619",
"9  c #56423E",
"0  c #694136",
"q  c #79472E",
"w  c #775B54",
"e  c #724D47",
"r  c #7B625E",
"t  c #AA1B1B",
"y  c #873B01",
"u  c #8C3310",
"i  c #92322A",
"p  c #AE2A2F",
"a  c #9C1A1A",
"s  c #884405",
"d  c #9A4A02",
"f  c #9B5507",
"g  c #8C5619",
"h  c #985816",
"j  c #884D14",
"k  c #A64B03",
"l  c #A35502",
"z  c #AA5B06",
"x  c #B55B07",
"c  c #A95C13",
"v  c #B15E1C",
"b  c #966212",
"n  c #AB650A",
"m  c #B76608",
"M  c #AB6917",
"N  c #B66815",
"B  c #BB7518",
"V  c #AF7113",
"C  c #894725",
"Z  c #8E5925",
"A  c #935A2A",
"S  c #864834",
"D  c #875736",
"F  c #97583A",
"G  c #924D32",
"H  c #A9503A",
"J  c #9C6A27",
"K  c #966836",
"L  c #906A2A",
"P  c #A46823",
"I  c #A9742A",
"U  c #B77826",
"Y  c #A97838",
"T  c #B57C37",
"R  c #AE6E2E",
"E  c #C46806",
"W  c #C5730C",
"Q  c #CC770D",
"!  c #C46B15",
"~  c #CC7B14",
"^  c #C87717",
"/  c #D47B14",
"(  c #D2790C",
")  c #C57825",
"_  c #C87B2E",
"`  c #9C3641",
"'  c #9B5B45",
"]  c #8C514A",
"[  c #AD5956",
"{  c #88675B",
"}  c #9A745A",
"|  c #966A4C",
" . c #AA6745",
".. c #B37A45",
"X. c #A76757",
"o. c #AB744C",
"O. c #896C66",
"+. c #9B7B76",
"@. c #977166",
"#. c #A77968",
"$. c #B77A7C",
"%. c #AF706A",
"&. c #C55057",
"*. c #C77453",
"=. c #C56971",
"-. c #BC8124",
";. c #BA8438",
":. c #AF823F",
">. c #CE8117",
",. c #D88619",
"<. c #D6820E",
"1. c #E38C1D",
"2. c #C78428",
"3. c #D78A27",
"4. c #DD932B",
"5. c #C68B38",
"6. c #CD9337",
"7. c #DB9637",
"8. c #D48A35",
"9. c #E7972A",
"0. c #E79A35",
"q. c #EB9630",
"w. c #EBA23A",
"e. c #F5A739",
"r. c #F4A12D",
"t. c #DBA03A",
"y. c #BB8A46",
"u. c #BA8758",
"i. c #B28954",
"p. c #9A847B",
"a. c #B58969",
"s. c #B89468",
"d. c #AB8A76",
"f. c #BA977A",
"g. c #B0886B",
"h. c #BEA06E",
"j. c #C58B48",
"k. c #CA9443",
"l. c #C89549",
"z. c #D59947",
"x. c #C58B59",
"c. c #C99855",
"v. c #D59C55",
"b. c #D28F49",
"n. c #E69D47",
"m. c #E59C54",
"M. c #D9A348",
"N. c #D7A556",
"B. c #CBA358",
"V. c #E7A548",
"C. c #F5AB46",
"Z. c #FCB34A",
"A. c #E5AA56",
"S. c #E9B25B",
"D. c #F9B858",
"F. c #F2AE50",
"G. c #C59868",
"H. c #C69A78",
"J. c #D2956C",
"K. c #CBA46A",
"L. c #DCA863",
"P. c #CAA677",
"I. c #D9B177",
"U. c #E6AC64",
"Y. c #E9B566",
"T. c #F4B963",
"R. c #E5B978",
"E. c #EFB373",
"W. c #E2977A",
"Q. c #FBC768",
"!. c #FFD46C",
"~. c #EBC37B",
"^. c #F9C878",
"/. c #FDD679",
"(. c #FAC55D",
"). c #B67C85",
"_. c #CB7A81",
"`. c #AA8D82",
"'. c #B59888",
"]. c #BA9D94",
"[. c #AB928E",
"{. c #BEA38B",
"}. c #BCA196",
"|. c #BAA39B",
" X c #BAAAAA",
".X c #B6AAAC",
"XX c #A79395",
"oX c #C89C88",
"OX c #CE918A",
"+X c #C7A689",
"@X c #D5A985",
"#X c #D7B589",
"$X c #C3A59B",
"%X c #C5AA9C",
"&X c #C6A895",
"*X c #D8A898",
"=X c #D6B898",
"-X c #CDB397",
";X c #EAB983",
":X c #E5B99A",
">X c #F3BB8C",
",X c #C7ACA3",
"<X c #C9B3AA",
"1X c #D7B6A8",
"2X c #CAB9B6",
"3X c #D6B9B4",
"4X c #D8AAA7",
"5X c #E6A8AB",
"6X c #E6BCB9",
"7X c #EEB4B2",
"8X c #DB8E96",
"9X c #DEC39A",
"0X c #E8C688",
"qX c #F7C986",
"wX c #F3D295",
"eX c #DAC7B9",
"rX c #D8C2AD",
"tX c #F5D5AA",
"yX c #E4CAB8",
"uX c #EAD4B8",
"iX c #EBD0AC",
"pX c #FDE6B8",
"aX c #FEE2A3",
"sX c #FFE291",
"dX c #D0BFC3",
"fX c #F2B8C1",
"gX c #D6C7C7",
"hX c #D8CCCD",
"jX c #E7CAC6",
"kX c #F9C8C8",
"lX c #EAD9C8",
"zX c #F5D8C9",
"xX c #E8D8D7",
"cX c #F8DBD7",
"vX c #FBE6C8",
"bX c #ECE2DB",
"nX c #FDEBD3",
"mX c #F9E7D9",
"MX c #FEF6D9",
"NX c #FFF3CA",
"BX c #F9DFE6",
"VX c #EDE5E5",
"CX c #F9EAE8",
"ZX c #FCF3E5",
"AX c #FFFAE5",
"SX c #FCF5EC",
"DX c #FFFAEC",
"FX c #FDEDF4",
"GX c #F9ECF4",
"HX c #F7F7F7",
"JX c #F9F6F5",
"KX c #F6F8F7",
"LX c #FDF9F4",
"PX c #F7F7F9",
"IX c #FEF4FC",
"UX c #FAF9F9",
/* pixels */
"HXHXHXHXHXHXHXHXHXHXHXHXHXHXHXHXHXHXHXHXHXHXHXHXHXHXHXHXJXHXHXJXJXHXHXHXUXHXJXHXHXHXPXHXHXHXHXHXHXHXHXHXHXHXHXHXHXHXHXHXHXHXHXHX",
"HXHXHXHXHXHXHXHXUXHXHXJXHXHXHXHXHXHXHXHXHXHXHXHXHXJXSXDXZXAXSXSXAXDXAXAXzXNXAXAXDXSXJXJXHXHXHXHXHXHXHXHXHXHXHXHXHXUXHXHXHXHXKXHX",
"HXHXHXHXJXUXHXHXPXHXHXPXHXHXHXHXHXHXHXHXHXHXHXHXJXDXAXMXNXpXpXMXNXpXR.N.z.N.Y.wXpXNXDXJXJXKXJXHXHXHXHXHXHXHXHXHXHXHXHXHXHXHXPXPX",
"HXHXHXHXHXHXHXHXPXHXHXHXHXHXHXHXHXHXHXJXHXHXSXDXAXvXtXI.K.y.c.R.qXc.6.C.D.V.0.z.l.v.iXMXSXJXKXJXHXHXHXHXHXHXHXHXHXHXHXHXKXHXPXPX",
"HXHXHXHXHXHXHXHXHXHXHXHXHXHXHXUXHXHXHXKXHXLXMXvXR.v.R N _ V.M.8.7.7.7.V.w.Z.C.4.9.8.5.qXMXDXKXHXHXHXHXHXHXHXHXHXHXHXHXHXHXHXHXHX",
"HXHXUXHXHXJXHXHXPXHXHXPXHXHXHXHXHXJXHXJXDXMXtXc.M z m ! ^ >.m W >.9.0.4.0.e.w.,.<.( ^ I #XAXSXHXHXHXHXHXHXHXHXHXHXHXPXHXHXPXHXHX",
"HXHXHXHXHXHXHXHXJXHXHXHXPXPXHXHXKXKXJXSXpXqXb.n ^ 8.! l n z ^ >.~ >.9.7.2.9.1.W m Q ! N Z iXLXHXHXHXHXPXHXHXHXHXHXHXHXHXHXHXKXUX",
"HXHXHXHXHXHXHXHXHXHXHXHXPXPXUXHXJXJXSXNXc.B 3.W 4.B N l z N m >.>.,.r.Z.2.B 3.W x z k z f i.MXAXDXKXHXPXHXHXHXHXHXPXHXPXHXHXHXHX",
"HXHXHXHXHXHXPXHXHXHXHXHXHXHXUXHXKXDXNX;XU ) W ~ ^ n N l c m m W >.1.r.Z.F.z N z l l ^ 7.V.S.qXtXMXDXJXHXHXHXHXPXUXHXHXHXHXHXHXHX",
"UXHXHXPXHXHXHXHXHXHXHXHXHXHXHXHXLXMXwX;.m E W ~ m k d z l n m E ,.,.1.w.Q.U 1 d N n.C.V.w.7.-.c.0XvXDXJXHXHXHXHXPXUXHXHXHXHXHXHX",
"HXHXHXHXHXPXHXHXHXHXHXHXHXJXHXJXAXNXN.n m W W W m d d d l l m ^ >.<.<.4.Z.M.s _ 8.w.w.C.D.n.V U N.0XnXHXHXHXHXHXPXHXHXHXHXHXHXPX",
"HXHXHXHXHXHXHXHXHXHXHXHXHXJXJXAXtXqXT.3.W m x m n d y y d f z z n m <.1.4.D.2.U 4.C.w.V.Z.F.3.N ) U.vXLXJXHXHXHXHXPXHXHXHXPXUXPX",
"HXHXHXHXHXHXHXPXHXPXPXPXHXSXDXtXj.6.4.e.Z.9.3.^ ^ 4.0.0.C.C.q.3.,.>.m >.,.w.8.f -.4.t.w.w.4.3.B m k.vXLXHXHXHXHXHXHXHXHXHXHXHXHX",
"PXHXHXHXHXPXHXHXHXPXKXPXHXSXvXG.c z W Q ,.w.e.e.0.e.r.w.e.e.w.9.w.e.0.m W w.z.y n ^ 4.2.>.W 3.3.B 5.vXLXHXHXHXHXHXHXHXHXHXHXHXHX",
"HXHXPXJXHXHXHXPXHXHXPXHXKXDXtXR l k m ~ <.<./ ( ( / ( ,.( ( Q Q >.4.9.m n U V.s 1 N 2.>.^ W 7.7.) l.vXLXHXHXHXHXHXHXHXHXHXHXHXHX",
"HXHXHXHXHXHXHXHXHXHXKXKXKXDXvXo.Z h n n ~ Q E ( E E E ( x E E E W Q m ^ f z z.M , h N m 6.3.7.D.z.Y lXLXHXHXHXHXHXUXHXHXHXHXHXHX",
"HXUXPXJXPXHXHXHXHXHXHXHXHXJXAXlXa.K 8 y h M c x x N x m x x E m ^ k W ) y s U V.d 1 c n N 7.5.j.u.+XlXJXHXHXHXHXHXHXHXHXHXHXHXHX",
"PXPXHXHXHXHXHXPXHXHXHXHXHXHXJXLXzX=XH.| g s y y y s d k z v z v k f ) m.g , h 2.v.A 1 j g g F s.rXuXVXHXHXHXHXHXHXHXHXHXHXHXHXHX",
"PXPXHXHXHXHXHXHXHXHXHXHXHXHXJXJXSX|.}.&X+XoX'.a.o.| K G A Z C h j Y A A q # 8 | s.#Xg.'.*XeXxXcXlXhXLXHXHXHXKXHXHXHXHXHXKXHXKXKX",
"PXPXHXHXHXHXHXHXHXHXHXHXHXHXKXDXLX2X|.}.`.'.$X%X1X1X1X:X:X:X:X*X7X:X:X:XyXuXkXzXnXmXZXCXFXCXVXxXdXxXHXHXHXHXKXHXHXHXHXHXKXHXHXKX",
"HXHXHXHXHXUXPXHXHXHXHXHXHXHXHXJXUXgX].,X$X].].$X$X$X4X1X6X6XkXkXzXcXCXCXBXIXFXcXcXBXFXGXGXGXxXgX.XVXUXUXHXHXHXHXHXHXHXHXJXHXHXHX",
"HXHXHXHXHXHXHXHXHXHXHXHXHXHXHXHXUXhX].,X$X].$X,X<X3X4X] X.fX@.).5X).).$.fXfX).).|.FXFXGXGXIXdX.XgXVXHXHXHXHXHXHXHXHXHXHXHXHXHXHX",
"HXHXHXHXHXHXHXHXHXHXHXHXHXHXHXHXUXVX|.$X$X|.$X,X<X3X7X- [ [ ] fX8X- _.5X_.[ kXBXGXIXIXIXGXGXxXgX2XKXKXHXHXPXHXHXHXKXHXHXHXHXHXHX",
"HXHXHXHXHXHXHXPXHXHXHXHXHXHXHXHXKXCX,X$X$X$X,X,X2X3X8X- i - fXBX&.p _.5X` _.IXFXIXIXIXIXIXhXdX.XgXSXVXVXSXSXSXbXbXDXJXLXHXHXHXHX",
"HXHXHXHXHXPXHXHXHXHXHXHXHXHXHXHXHXJX<X|.$X$X$X<X<X6XX.- 5X6 ] fXi =.FXBX=.` ). XFXIXIXIXIXdXgX2X XlX<XrXeXyX%X{.-X<XhXxXKXKXKXKX",
"HXHXHXUXHXHXHXUXHXHXHXHXHXHXHXHXKXLX2X$X$X$X%X<X3X3X4X4XfXfXOX5X_.5XFXFXBXfXfXBXIXIXIXIXGXGXCXeXrX%X'.{.d.&X} | {.f.`.|.bXKXKXKX",
"HXHXHXHXHXHXHXHXHXHXPXHXHXHXHXHXHXUXeX}.&X+X%X,X3X3XjXjXjXBXCXGXIXIXFXIXFXIXGXFXIXIXIXFXGXCXCXxXrXyXyX{.d.} d.`.-X].'.`.bXUXKXKX",
"HXHXHXHXHXPXHXHXPXHXHXHXHXHXHXHXHXUXlX}.&X&X%X<X3XdXgXhXhXxXdX.X.X.X.XhXGXIXGXIXIXIXVXIXVXxXlXeX1X<XrX&X}.d.#.oXf.@.q 3 SXHXHXKX",
"PXHXHXHXPXUXHXHXHXHXHXHXHXHXKXKXHXUXcX|.-X&X%X<X2X3XdXxXxX3 O XXxXVXxXgX.XhXIXIXIXGX2X].-X+Xd.d.{.+Xf.} } #.= < i @ + 6 LXJXJXHX",
"HXHXHXHXHXHXPXHXHXHXHXHXUXHXKXKXUXLXCX].$.*X*X1X6X3XjX2X9   w e w  XFXLXCXXXVXIXIXBX,Xf.f.+Xg.#.| =XH.} g.X.< ; u * @ e UXJXHXHX",
"PXPXHXHXHXHXHXHXHXHXHXHXHXHXHXHXPXJXLX$X+ 5 [ OX5XyXkX X3 .Xw $XjX3XcXxXVXdXdXUXIXCXX.o.s.a.G.oXoX@Xs.| ' S G H u & & X.JXHXHXHX",
"PXPXPXHXHXHXHXHXHXHXHXJXLXDXJXKXHXHXLX3X; & & & - S jX2Xw r O.CXmXmXCXCXxX`..XUX5XX.' K F 5 8 2 , 4 2 2 = F W.W. .a - H.LXGXHXHX",
"HXHXKXKXKXKXKXKXKXKXLXAXNXbXAXAXSXJXLXzX2 & * * * & 5X2X9 3 { d.4XlX2X,XeX9  XIX=.t H  .i < 5 = % % + ; + ' H.W.*.i < *XUXHXHXHX",
"HXKXHXKXKXKXKXDXDXDXvX{.i.i.s.iXAXDXDXcXi & * * * * $XkX3 3 3 { 3 +.e ] { p.2XJX&.t R  .C K o.X.X.G @ @ @ %.@XJ.*.1 2 yXUXJXJXHX",
"HXHXKXKXKXKXKXKXNXiXK.y.:.;.:.:.#X9XuXnX' = * * * & '.cX).  +.mX{ yXyXjXjX3XhXBX&.p i u x.;XH.OX@XoXG @ i C ..b.*., 4 zXLXHXHXHX",
"KXHXKXKXKXZXDXlXs.K.I.Y.6.-.-.-.L.y.o.I. .= ; * * & $.gXgX  > 9 w '.'.`.<X[.CXkXp t i G x.@Xa.H.a.@X .= u [  . .G # ] ZXLXHXHXHX",
"HXHXHXHXKXAXvXh.I.R.0XwXl.-.:.k.Y.L.I y.u.; = * * & %.dXfXr 3 4 4 O.w w [.3XxXfXp a i C ..j.H.H.G.x.F = 2 F ] S 2 # +.SXSXKXHXHX",
"HXHXHXJXKXlXh.~.^.B.0X0Xk.-.;.B.k.;.6.l.R.u & & * & [ 5X3X3X$ w 3 ,X4X$XO.jXcX5Xa a ' G ..J.a.C  .x. .+ 4 ] S # + $ '.LXJXKXHXHX",
"HXKXHXSXlX:.:.L.N.6.6.l.-.-.-.-.-.-.M.l.L.j.= & * @ ] 4X<X@.> o e jXoX@.{ 6 `.).a ; ' G G  .#.o.X.' , # 4 4 : X % 6 3XLXHXHXHXHX",
"HXKXHXDX9X7 :.Y.T.A.6.V -.7 -.S.F.M.S.l.I ..u & @ + 6 { # . @.| % P.K J.@X4 ] *XOX' i F 5 S q q C 6 $ > : . . # : q xXJXJXHXHXHX",
"HXHXHXLX=Xq R.qXM.-.-.-.7 B.(.S.t.6.;.qX:.:.C + S #.a.X.X Z c.v.A.V.V.F.E.u 2 >X>X>X..G 2 > q { q X o : $ X + # % X.CXIXHXHXHXHX",
"HXHXHXLXpXK.I.B.L k.-.-.:./.S.Y.U M.;.B.;.I.C + ' u.K.b.b.T.D.F.w.9.1.w.T.! *.E.U.E.^.Y q 3 $ > o . o 5 $ X X # 6 oXSXHXHXHXHXHX",
"HXPXPXSXpX9X0X:.-.i.:.b b i.B./.I -.B.;.v.^.1 P z.m.F.r.3./ q.9.9.Z.e.e.C.e.F./ q.0.D.x.2 : o . X X $ e : % $ 5 #.1XLXPXHXHXHXHX",
"HXHXPXSXMXwX0X/.I.B.;.L 7 -.B.S.6.k.L.S.S.S.A.F.F.1./ 1.1.q.e.e.e.r.r.9.q./ / x / 3.C.A.8 : > X o # > #.oXoXoX&XO.}.bXKXHXHXHXHX",
"KXKXKXKXAXpXwX/./././././.Q.Q.Q.!.Q.D.V.0.w.e.9.~ 9.e.e.r.r.e.r.r.e.q.1./ / x E ! x _ m.H , % # X # q { d.'.`.p.O.<XxXHXHXHXHXHX",
"KXKXKXKXKXNXpXsX/././.!.!.!.!.(.D.S.7.B ,.0.9.~ x C.e.9.1.1.1./ 3./ ! E ! x k x k k k n.c.D : $ $ e #.+.<X X|. XhXVXKXUXHXUXHXHX",
"KXKXKXKXKXMXrXaXsX/./.!.(.(.(.A.t.-.M ) V._ ! d k F.w.4.E E k x ! x k u u u v u u u x n.T.K.g.d.'.}.{ |.DXLXSXUXUXUXHXHXPXHXHXHX",
"KXKXKXKXKXSXuX9X~.~.Y.S.M.M.5.-.V B V.Q.D.! y v Z.T.Z.C.0./ x x k k k v ) m.U.) R _ n.q.V.U.9X&Xf.@.O.2XbXHXHXHXKXKXHXHXPXHXHXHX",
"KXKXKXHXHXJXCXeXI.s.:.J J J g ;.S.^.^.^.T.0.) e.q.q.e.Z.Z.Z.D.C.2.U _ z.n.z.L.qXE.z.n.0.2.A.sXwXI.K.9XbXSXHXHXHXHXHXHXHXPXPXHXHX",
"KXSXHXHXHXHXSXmXiX9X+XP.s.K.R.R.~.~.^.Q.Q.D.0./ ^ / q.r.q.e.C.Z.Q.D.A.B f z.qXL.5.S.n.4.>.M./.qXI.P.rXAXJXKXHXHXHXHXHXHXHXHXHXHX",
"HXHXHXHXHXHXHXSXZXlXuX9X-X+X=X9XI.L.B.B.z.M.7.E ! ^ / / / 1.r.e.F.Q.sXT y U.E.x.j.T.V.4.B 4.6.y.P.iXMXKXJXHXHXKXHXHXHXHXPXHXHXHX",
"HXHXHXHXHXHXHXHXKXSXZXbXlXuXeXiXtX~.R.S.N.6.6.l d ! ! v ) / 1._ n.z.Y.j.I 5.l.;XR j.V.m V -.t.~.9XvXAXKXHXHXHXKXHXHXHXPXHXHXHXHX",
"HXHXHXHXHXHXHXPXKXJXJXJXKXSXZXmXiXh.Y l.Y.Y.A.;.s y d c ) N ^ / n.U A.L.;.I b P v M B V -.A.N.s.9XlXSXKXKXKXKXKXHXHXHXHXHXHXPXPX",
"HXHXHXHXHXPXHXHXJXHXHXHXHXKXJXVXlX9Xi.L I ;.v.N.N.*.j 1 y y v B _ b.j.I -.;.;.f f N B 8.S.y.L I.lXZXSXKXKXKXKXKXHXHXHXUXHXHXPXPX",
"HXHXHXPXPXPXPXHXHXHXHXHXKXKXKXSXVXMXiXG.i.J Y y.v.A.U.v.U j 1 ; h h h U 6.M.V.M.7.6.M.S.I Z P.lXZXKXKXJXKXHXJXJXHXPXPXPXHXHXPXHX",
"HXHXHXHXKXPXHXHXHXHXHXHXKXKXKXKXGXSXvXrX#XP.i.y.Y ;.j.z.U.U.L.T h j U M.M.A.V.t.3.M.M.b L f.lXZXKXKXKXKXKXKXKXKXHXHXPXPXPXHXKXHX",
"HXHXKXKXHXHXHXHXHXHXHXHXHXHXHXHXHXGXSXVXlXuX9X@Xc.y.T T ;.j.l.N.S.T.A.M.l.M.6.6.S.y.7 | {.uXZXKXHXHXJXJXHXHXHXHXHXHXHXHXHXHXHXHX",
"HXHXHXKXHXHXHXHXHXKXHXHXHXHXHXHXHXHXKXSXJXZXnXuX9X#XK.x.Y I U T ;.l.N.Q.(.B.N.Y.I 7 i.{.bXDXSXKXHXHXHXHXHXHXHXHXHXHXUXPXHXHXHXHX",
"HXHXHXHXHXPXHXHXKXKXJXHXHXHXHXHXHXHXHXHXKXSXSXZXSXvXuX=XP.G.y.R J P P T l.Y.l.g 8 g.1XmXDXSXKXKXHXHXKXJXHXHXHXHXPXHXHXHXHXHXHXPX",
"HXHXHXHXHXHXUXPXKXKXKXJXHXHXHXHXHXHXHXHXKXKXKXKXKXJXZXnXuX:XP.s.i.Y J g g 7 2 D f.rXZXJXKXKXKXKXHXHXHXHXHXHXHXHXHXHXHXKXHXHXHXHX",
"HXHXHXHXHXHXHXHXHXHXHXHXHXHXHXHXKXKXHXHXHXHXHXHXKXKXSXSXZXmXlXiX-XP.s.i.:.K g.9XlXSXJXJXHXHXHXHXHXHXHXUXHXHXHXHXHXHXHXHXPXKXKXHX",
"HXHXHXHXHXHXHXHXHXHXHXHXHXHXHXHXKXKXHXHXHXHXHXHXKXSXKXKXKXJXLXSXmXuX=X+Xf.f.rXbXLXHXJXHXHXHXHXHXHXHXHXHXHXPXHXHXHXHXPXHXKXKXHXHX",
"UXHXHXHXHXHXHXHXPXHXHXHXHXHXHXHXHXHXKXKXHXHXHXHXHXKXKXKXHXHXJXJXSXSXZXbXeXeXbXKXUXHXHXHXHXHXHXHXHXHXHXHXPXPXHXHXUXHXHXHXHXHXHXPX",
"HXHXHXHXUXHXPXHXHXHXHXHXHXHXHXHXHXHXKXKXHXHXHXHXHXKXKXKXHXHXKXHXKXKXKXKXDXKXKXKXHXHXHXHXHXHXPXHXHXHXHXHXUXPXHXHXHXHXHXHXHXUXKXHX"
};
