/* XPM */
static char *_f4360c6f2644340f35a3f26515b1bfdRqoTWrSKWupWDKmg[] = {
/* columns rows colors chars-per-pixel */
"64 64 245 2 ",
"   c #040301",
".  c #0A0401",
"X  c #0B0A05",
"o  c #0D0D0B",
"O  c #060A05",
"+  c #140E0A",
"@  c #160A03",
"#  c #0D100B",
"$  c #13120D",
"%  c #1B140D",
"&  c #1B160A",
"*  c #141512",
"=  c #1B1A14",
"-  c #1C1D1B",
";  c #181714",
":  c #0D1211",
">  c #25160C",
",  c #251D16",
"<  c #321E14",
"1  c #1E201C",
"2  c #17221E",
"3  c #23221D",
"4  c #2A241C",
"5  c #292318",
"6  c #36251B",
"7  c #1B2526",
"8  c #173738",
"9  c #1C2C33",
"0  c #242522",
"q  c #2A2622",
"w  c #262924",
"e  c #2B2A25",
"r  c #2C2C29",
"t  c #232B2C",
"y  c #322C25",
"u  c #372C27",
"i  c #2D312C",
"p  c #33322D",
"a  c #3C332C",
"s  c #393227",
"d  c #2A2E31",
"f  c #293738",
"g  c #3B3531",
"h  c #3C3B36",
"j  c #343C3C",
"k  c #3C3C3B",
"l  c #343734",
"z  c #302E31",
"x  c #45342A",
"c  c #433A35",
"v  c #4B3C35",
"b  c #443C3A",
"n  c #4B3D3A",
"m  c #463732",
"M  c #4B352B",
"N  c #472A1C",
"B  c #3A423C",
"V  c #2D443D",
"C  c #43433D",
"Z  c #4C423B",
"A  c #53433C",
"S  c #584438",
"D  c #55402F",
"F  c #68493A",
"G  c #6E503E",
"H  c #1B3C45",
"J  c #283C45",
"K  c #373E43",
"L  c #423E42",
"P  c #1A4649",
"I  c #1D5153",
"U  c #2A4746",
"Y  c #3B4343",
"T  c #3B454B",
"R  c #384847",
"E  c #2B544C",
"W  c #38534C",
"Q  c #364B55",
"!  c #2A5958",
"~  c #395858",
"^  c #2B4C53",
"/  c #35615C",
"(  c #395A68",
")  c #3B5E75",
"_  c #386665",
"`  c #3D6777",
"'  c #316A68",
"]  c #434443",
"[  c #4B4B45",
"{  c #444B4B",
"}  c #4B4B4B",
"|  c #484643",
" . c #564C47",
".. c #4C524D",
"X. c #45534C",
"o. c #59534C",
"O. c #464C51",
"+. c #4B5453",
"@. c #475958",
"#. c #535A5C",
"$. c #575955",
"%. c #63544C",
"&. c #6B5647",
"*. c #775849",
"=. c #645A54",
"-. c #6B5C54",
";. c #635A58",
":. c #6E564C",
">. c #44625C",
",. c #58635D",
"<. c #68625B",
"1. c #776459",
"2. c #79614E",
"3. c #465C65",
"4. c #565D65",
"5. c #496867",
"6. c #5C6363",
"7. c #576869",
"8. c #4B746C",
"9. c #4D6C7C",
"0. c #486775",
"q. c #566C78",
"w. c #487878",
"e. c #577678",
"r. c #54756E",
"t. c #656A66",
"y. c #756B65",
"u. c #68746A",
"i. c #7B726B",
"p. c #677777",
"a. c #777975",
"s. c #656D74",
"d. c #835D4C",
"f. c #896756",
"g. c #936C5A",
"h. c #96715C",
"j. c #86604E",
"k. c #877569",
"l. c #9A7463",
"z. c #9C7C6B",
"x. c #967867",
"c. c #857B74",
"v. c #937E74",
"b. c #A37C69",
"n. c #5C827A",
"m. c #77847C",
"M. c #67827A",
"N. c #89827B",
"B. c #9A8477",
"V. c #9D826D",
"C. c #A4836C",
"Z. c #AA836C",
"A. c #A88876",
"S. c #B28A75",
"D. c #B7947C",
"F. c #AC917C",
"G. c #4A6D82",
"H. c #566E82",
"J. c #4B7785",
"K. c #5C7A8B",
"L. c #567886",
"P. c #5B7E91",
"I. c #657B86",
"U. c #697F8E",
"Y. c #58868A",
"T. c #588693",
"R. c #548B8E",
"E. c #688688",
"W. c #778887",
"Q. c #678895",
"!. c #738997",
"~. c #69969A",
"^. c #779699",
"/. c #72928E",
"(. c #7AA29E",
"). c #6CA49B",
"_. c #7799A3",
"`. c #6A94A2",
"'. c #7AA3A5",
"]. c #73A2A6",
"[. c #888985",
"{. c #998B85",
"}. c #89968B",
"|. c #98938B",
" X c #879B99",
".X c #979895",
"XX c #A59389",
"oX c #B69785",
"OX c #A59B94",
"+X c #AB9188",
"@X c #87A19E",
"#X c #98A49C",
"$X c #AAA49B",
"%X c #B4A49B",
"&X c #B0A893",
"*X c #839DA4",
"=X c #818EA1",
"-X c #89A6A6",
";X c #95AAA8",
":X c #95B1AD",
">X c #8CAAB6",
",X c #9BB7B5",
"<X c #93AEB2",
"1X c #A8ABA4",
"2X c #B6ABA4",
"3X c #A7B2AA",
"4X c #B9B4AB",
"5X c #A6B9B6",
"6X c #B7BCB5",
"7X c #C19C87",
"8X c #C8A28C",
"9X c #C7A795",
"0X c #D0AE9A",
"qX c #C5B5AC",
"wX c #C4BCB5",
"eX c #CFB1A3",
"rX c #A4C3BD",
"tX c #BAC2BA",
"yX c #BCC0A9",
"uX c #9FC3BD",
"iX c #C5C5B9",
"pX c #D0C6B9",
"aX c #AAC5C4",
"sX c #A7C6C4",
"dX c #B8CAC6",
"fX c #BBD4D1",
"gX c #B9D5CE",
"hX c #C9CAC3",
"jX c #D7CBC4",
"kX c #D8D5CB",
"lX c #CADAD5",
"zX c #D6DDD6",
"xX c #C4D5CE",
"cX c #E6DBD3",
"vX c #E2D1C8",
"bX c #D8E1DB",
"nX c #E8E6DA",
"mX c #EEEAD4",
"MX c #ECEDE5",
"NX c #EAECE6",
"BX c #ECF2EB",
"VX c #F3F4ED",
"CX c #F8F3E8",
"ZX c #F7F6EF",
"AX c #D3E6E2",
/* pixels */
"BXNXbXNXVXMXnXjXnXCXBXZXCXnXnXCXZXBXNXlXxXlXdXrXaXsXsXsXsXsXsXsXaXaXaXaXaXaXaXaXaXaXaXaXdXfXmXCXnXMXBXBXVXBXNXNXMXMXVXMXMXVXMXNX",
"ZXZXBXnXhX6X&XOXOXiXbXpX6X$X1XjXnXMXBXBXZXBXBXAXbXAXAXlXlXxXfXfXfXfXfXfXfXfXfXfXxXxXxXfXxXlXmXCXbXbXzXzXzXnXBXVXVXZXVXVXVXNXnXnX",
"nXzXwX2X$X$X$X$XOXOXiXhXyX6X4X4XqXiXbXkXiXbXMXZXZXZXVXBXVXNXzXlXlXlXAXAXzXlXbXlXlXlXzXzXzXkXmXCXzXkXkXzXzXnXNXMXVXVXVXMXNXBXZXZX",
"$X$X$X2X4X2X4X4X4X$X$XtXkXhXiXiX6X6XtX4XyXtXiXtX6X3X3X6X6X6X6X6XaXhX5XtXtXhXdX5X6XdX6X6X6XtXmXCXhX#XiXiXiXiX6X3X6X3X6XhXhXkXbXbX",
"1X2X3X1X3X3X3X3X3X3X3X:X5XtXgXxXdX5X5X5X:X;X5X;X-X;X;X6X3X6XdX6X5XrXrXgXdX6X.X;X3X5X6X3X#X&XmXmX3Xm.3X5X6X3X;X#X;X;X5X1X3X1X;X3X",
"}.*X X-X-X@X^./.-X@X;X;X(.@X:X@X*X>X-X-X_.-X*X-X^.^.;X:X,X,X-X>X-X_.*X-X>X5X5X>X-X}.;X3X}.#XmXkX}.}.;X@X:X#X@X5X X;X:X*X=X5X=X*X",
"!./.^.^.*X_.`._.^.~.~._.~._.~.~.~.,X,X-X^._.`.Q.^.>X-X>X>X*X_.-X_.~.T.Q.!.*X!._.:X*X-X/.:X3XmXmX@X@X(./.^./.R.'.~.Q.Y.E./.^.K.^.",
"T.~.~.~.~.~.J.R.`.R.R.`.R.Q.~.~.Q.`.!.Q.Q.`._.`._.~.~._._.`.!.T.Q.T.J.G._.*X_.P._.'.Y.).M.N.mXkX}./.E.~.^.Q.~.Y.L.E.Q.^.~.T.'.'.",
"R.R.`.R.` T.T.P.~.R.`.P.J.T.].T.U.>X!.K.Q.P.>XJ.` P.T.G.P.G.G.P.>XQ.L.G.!._.0.) P.K.G.) M.m.mXpXp.( 9.H.!.Q.!.Q.I.!.*X;X>X=XQ.!.",
"` J.J.T.J.T.T.J.J.J.` J.J.P.P.Q.Y.!.>X!.Q.0.T.G.P.`.`.P.J.G.G.H.P.K.G.L.!._.) 0.Q.H.) H.).N.mXiXE.Q.!.!.L.H.P.H.!.!.U. XH.3.0.G.",
"T.Y.` J.J.T.K.G.J.P.P.J.J.J.T.) L.e.!._.!.G.0.L.J.T.P.P.) G.H.G.H.H.H.U.!.=XH.0.U.U.( 0.m.&XmXiXW.!.!.Q.P.H.L.9.P.K.I.!.L.H.` ( ",
"J.` ` ` G.G.`.U.P.P.P.( L.P.Q.G.L.!.K.I.!.Q.G.( G.L.H.P.G.G.K.U.!.H.H.!.U.!.q.0.H.9.Q O.M.F.mX&Xa.q.0.9.e.0.0.` ( 9.H.U.Q.( 0.( ",
"` _ 0.0.0.0.q.q.H.G.0.G.K.9.0.0.0.U.q.I.I.H.q.~ G.I.H.I.H.H.I.I.=XH.q.s.p.E.e.K.I.*X!.f X.#XmXmX3XgX,X<X)./.E.n.e.r.5.r.5.3.5.T ",
"e.J.L.9.I.I.q.I.q.3.q.q.I.q.H.9.5.0.H.q.s.W.I.3.0.q.H.I.I.I.s.I.U.s.,.>.#.>.r.;XxX<X8.J V B.mXyX}.@XgXsXsXuX,X,X<X-X-X(././.O.K ",
"( 9.q.0.q.0.I. XW. XW.7.q.7.p.I.I.W.I.^.-X5X:X7.,X*X.X=Xp.s.m./.[.*Xp.5.5.W ~ :XfX!.J f B t.yXu.5.~ :XsXrXuXuXrXuX,X5X;X,Xa.g b ",
"0.q.7.q.e.e.E.7.s.|.s.p.^.E. X,XdX:X,XgXgXxX3X@.rXxXdX.XW. X5XrX5X!.7.p.r.r.r.uXsX_.0.f V V W ,.V U e.uXrXrXrX,X/.u.M.p.p.] b L ",
"#.7.e.m.E.M.W.W.i.[.7. X,X,XsXaX}.,.:XtX@XtX;XX.rXdXM.t.7.R ;X-XM.W / n.n._ n.:XgXsX~._ _ _ 5.5.@.5.(.rX-Xm. Xm.,.u.M.m.D s Z c ",
" X X@X@X X@X;X;Xt.[.7. XuXsX;X,Xt.6.@XaXM.u.W.,. Xm.X.V W >.;X7.>.W / M.8.E n./././.^.E.r./.:XW.}.m.M.^.u.M.M.u.M.M.M.%.D B c c ",
" X^.(.-X'.:X:X-Xs.a.4.!.sX/.6.6.] m./.;X+.,.6.,.,.,.,.V (.(.>.>.n./ E M.n.E n.>.W @.,.@.$.u.u.[.%X|...V @.,.,.#.S X.o.B n n Z Z ",
"^.^.(.-X].-X:XE.t.a.4.O.*XU t r Y 7.r.X.w W.}.,.$...X.E ).n.7 E n./ E n._ E r.>.$.$.h ..N.a.c o.k.|.C o.C ] ..} ....B C b n n n ",
"(.].'.'.n.Y.;Xs.t.6.4.K @.z z k X.>.n.8.- [.!...C ..C V ).n.7.,.n.E E >.8.E r.7.X.$.1.<.%Xk.l ..y.a.$.[.y.o.;. .;. .g b n b v n ",
").].~.( E U 5.@.} s.s.K O.t.O.4.@.r./.M.R s.p.T C C >.V R.).W ..n.E E / r.E r.W C a.N.1.&X-.4 | [ C } c.y.k.| n  .;.%.A b n n n ",
").).Q.P H Q @.T 7 s.7.d O.6.#.4.( 5.E.E.s.,.#.@.,.B W V n.n.V W / V E n.V W n.V ..<.N.c.1.i.B. .y h [  .$.y.k v b n o.-.%. .v v ",
"~.`.~.^ J ( 3.f d 4.s.K j K 4.K ~ ! _ _ #.<.R X.,.,.W P n.8.M.B / 8 V X.R 8 M.E C <.i. .-.oXoXB.i.h $.%.y.;.b L n b v v  .-.=. .",
"R.R.].! H ( Q 7 7 4.H.z T Q 4.J U ! ' _ @.6.R B $.X.X.V 5.X.N.C u.o.$.m.,.2 n.V l $.}  .1.f.x.k.+Xa |  .-.| n n n n n n v n &.:.",
").`.J.P H Q Q 9 7 3.O.L T Q @.Q 8 P / / ~ >.R R X.R X.E 8.V }.<.m.N.u.&X.X2 r.V 4.;.[ %.:.v.+Xy.v.a Z [ b n v n n v n n n n v v ",
"Q.0.9 8 J Q J d 9 L T T O.K 3.4.8 I ' ! W @.V R X.{ W V 8.V #X=.&.%.o.OX|.e u.B K o.L %.-.{.v.%.-.x c n n n n n n n n D v n v v ",
"Y.~ f t J J J J O.O.;.H.3.T O.0.H I ! ' ~ 5.j U B { R V >.@..X..u.u.=.&XN.o.a.[ m n m ;.-.:.=.v.c. .o. .m v v v v n n v v v v v ",
"Y.r.p.h f f f J 3.Q 4.q.K K Q 0.^ P I ! w.@.f d i j B d ,.X.[.<.f 9 { |.N.%.N.-.n A  .;. .z q [ $.Z  .1.%.A v v S n v v v v m m ",
"R.n.7.M.{ V J J Q J K K K J O.3.! P I ' ~ U Y t.t.B } B ..t.a...U f { [.y.o.k.[ n  .%.;.L k k z m m %.%.-.-.%.n v v v v v v m m ",
"' n.' r.a.j f W O.K K K O.J Q O.Q P ! ! E V ,.[.a. .C | l { t.Y Q R T 6.6.L u.} g n  .;.K z k b n %.1.g A %.-.1.&.n M v v v v v ",
"' ` n.' M.u.l X.4.#.L K K K J 3.~ H P ! W X.[ $.t.[ g b k Y } T f Q #.} } } 4.j g } } ;.] z b b n y.b x s %.=.m %.-.o.v m m v m ",
">._ J.w.8.r.u.B W ,.$.B B K +.p.0.H I ' U { Y i.[.;..Xo.r ] B #.K f W.] k K #.k ] +.o. .| k b m 1. .m g Z i.b q x | %.-. .v m m ",
"X.W ' n.n.' >.u.l B C u.>.^ 4.7.E.P P ! U f d } } C .X1Xa.Y { Y 7 7 6.| } K O.z T { O.+.L b b %.;.u g u 1.o.4 0 , y y n o.-. .v ",
"B ,.W 8.w.' / 8.a.C <.m.5.^ Q q.E.8 P ! U l K ] | b z 4.#.T Y +.t 9 +.] } k K z O.O.{ O.b b n ;.k , q q l 4 = 2 ; 1 q r a p b ;.",
"V A $./ ` ' V 8 ,.m.$.@._ 8 Q 7.e.U H ! Q +.+.#.$.} K Y K j j 4.T } +.} Y k L L { O.{ ] b c  .n 3 ; k 0 e i 4 B r q 7 0 - * ; c ",
"5 5 e i 7 2 : # = B 2 _ 5.8 U 5.E.U P ^ Q X.T ] K z 4.s.K j K t.4.4.O.] K z z 0 L L O.k m n  .q * z ] C l k Z C B 4 e e 0 q 3 ; ",
"5 5 5 & $ $ 2 # X 1 8 / / 8 R j 5.@.H I f T } K $.#.z 6.+.d #. Xa.a.$.$.] z L L K K L k L } u z q L <.| B B ..C B Z ,.B z 3 0 0 ",
"e e i 5 + O O O $ l j W / 8 V i 7.u.^ J J Y O.O.K O.K z L $.t.W.a.a.4.$.] r L k k K b z m z - 3 3 3 z e 4 w [ ,.$.e 1 e w s h i ",
"5 = & O O 3 i 5 2 = O 2 V 8 i B ,.>.@.f K T 3.K T O.O.K K K z f 7 0 - ; 0 - ; * z b b q 3 - q q t z , - 1 2 w h e & 4 C C B [ i ",
"5 & O h o...B C # O # * O O l i B i t 7 w Y @.K K K 4.s.#.a.a.i o - 0 ; 1 e i r r l 0 e 7 z z - 1 0 1 * ; * * - 3 w C p i 3 1 e ",
"5 5 & B B = O O O g B A i 3 $ 3 2 2 2 $ - 2 9 f 7 j O.4.#.+.U.s.t : - r w p h p p 0 + * o - q 0 1 q t 7 - t t * 2 C o.B e 5 & 2 ",
"5 2 & # O O X $ e B g ,.C i   # w 0 r w r 1 0 z i r l e t - - - - q z r q z r g p 3 ; o o * ; * o * - - q * * d 4 2 $ * 3 e 1 1 ",
"2 & $ # # 1 $ C B 3 C <.i = 2 ; 2 0 7 r w * e r = r r e - : ; 0 0 0 q 3 e z q z r z 0 o : * - * - * - - b #.0 0 w 1 = = 3 1 1 1 ",
"$ $ # * & $ = B | 0 l e * 0 r r g B = 3 - a [ B b | o.i q 0 * - - - - t 0 - 0 z 0 e t : o .   * 2 - 0 z .X|.o * : - - * 2 w i w ",
"o o * $ # O a kXi.[ i = 3 e 7 p C [ 3 h [ ..[ a z } k   o * + ; - - - * : - 0 0 ;     X + k N.b - - ; b 1Xy.. * : * : ; 1 = 1 3 ",
"  $ ; o +   =.iXa., p  .<.$.i = = $ # i ,.Z B $ * * o o X o * 0 7 * : O : : + o 0  .t.b * y.NX| * k , OXwX .; : * o * o O # O . ",
"O # + o   r wXc.|.Z y N.MXnX2Xy.a i 1 1 & i 3 # : o * ; o * ; *   o ; - t $.} ; [.ZXZX<.+ | wXy.z wX= 4X[.u t   : o : : $ . a 1.",
"i l 1 & . o.iX .OXc h wXN.c.4X[.q o.$Xs.m g - + o ; * * * : ; 0 t.i.L - t.jXa.o .XqX4Xy.o q jX{.-.vXOXcX=.5 y O   O # # O o.0X0X",
"l B 5 B $ b jXc..X-. .jXe + OXc.g o.wX2X0 + N.4X<.q | 2XjXwX} + y.nX[.* i.4X<., hX[.OX{.q q N.wXnXCXvX2Xs 4 i 5   + 3 + &.oXoX8X",
"# = i y 3 $ c.{.2Xk.a pX .g 1X|.+  .2X{.L z OXqXi.,  .jXcXkX;.3 q y.cXi.;.vXt., qXo.y.2Xz ; f.wX2X{.OXy 1 & + % x A 1.V.C.F.D.7X",
"1 $   & $ 0 |.  -.XX .cXb + {.XXz L wXwX. %.ZXqX[.. y.NXc.kX1.. + z kXqXN.2X .o.jXqX2X2XA < m vXXXA c.@ & > :.A.oXoXA.C.C.C.Z.Z.",
"  # o       S 2.2.qX, OXy., OXOX% z %X+Xu {.jX%XN.+ k.cX;.2Xi.z z u N.CXcXqX .-.%Xc.%.2Xd.< d.8Xx.*.A.2.2.+XoXF.F.Z.V.V.C.V.C.V.",
"  $ + O , & s 2.A.F.F 1.4Xm y.{.z m 2XeXA cXvX2X{.. 1.cX< OX%X; + , %XjXXX%Xn 2Xc.. < v.eXeXeX0X0X0X8X9X0X8XD.z.V.V.h.2.G G 2.V.",
"O O O 3 , M > & C.D.oXx.v.qX2X%Xq z {.+Xv.jX+X%X|.. c.cX%X2X+Xo.m a.%X:.v qX%.b.b.oX9XeX0X0X8X8XoXoX7XD.S.D.C.b.V.G x 5 5 & & 6 ",
"o o @ 5 D B.&.G D.C.g.S.b.b.+XB.z , %XeXvX%X .{.c.g y.%X;.N.2Xn . ;.m , , m x.+X7X8X8X8X7XS.S.S.S.S.S.S.Z.Z.b.z.D 5 e 5 5 = & & ",
".   . -.z.g.b.b.C.h.Z.S.D.Z.A.V.< q {.%XvX{.< c.y.$ , q   & 4 2 , = g s & , > x.S.S.7XS.b.b.b.S.Z.Z.b.z.b.z.b.:.x D & 5 4 5 4 e ",
" .> . x g.g.g.l.V.C.F.A.C.S.oXD.1.u v.+X9XM m c. .c a   $ # & $ , X % & & s x g.7Xb.b.S.S.b.b.Z.b.b.b.l.h.z.2.N s 5 1 y e & = = ",
"2.y.@ . n l.b.l.V.f.N s 5 &.f.B.7XoXz.A.B.< < v.1.-.S & > X C D a > > > s @ F A.b.b.b.b.l.g.g.l.h.h.g.g.g.S < + # # & = X   O # ",
"< N +   > N *.l.G < & 5 5 6 5 S z.b.A.b.z.v.l.v.z.v.k.-.:.x s 2.v %.x.v.x.f.*.h.l.l.g.g.j.j.j.g.j.j.g.f.&.x , . O O X O @ , & O ",
"% < 4 > < < < N u @ , r 5 > 5 5 S *.f.g.b.l.b.z.b.x.x.x.f.k.G 2.:.f.&.*.f.f.g.f.d.d.d.d.d.d.j.g.h.l.l.g.N  .x >  .q + < v S M < ",
"> @ @ @ > < N u u , > * 5 5 & > @ M j.l.f.b.+XA.A.A.V.A.F.x.V.C.A.x.l.g.x.g.b.x.l.l.z.z.l.b.l.d.g.d.d.G N M %.:.:.N m x M 6 u x ",
"&.D M N 6 < @ . @ 4 % > s x # s < < d.7Xg.b.9XoXA.A.oXoXeXz.V.oXoXoXb.+X+XoX+XS.S.z.+XoXb.8Xg.d.G F F M M v %.m % . u q , @ % , ",
"N S F :.:.%.q   . . % 4 > 5 . s m F *.*.*.*.*.*.*.*.d.2.*.*.*.d.*.:.&.*.G F *.:.G *.&.*.1.d.G F F F F N < x A < . ; o + % + + + "
};
