/* XPM */
static char *_0802529ff94467ee34a961f120efec5i8yk4lSoaVN0S6zd[] = {
/* columns rows colors chars-per-pixel */
"64 64 51 1 ",
"  c #413E37",
". c #413E39",
"X c #423F38",
"o c #403F3A",
"O c #423F3A",
"+ c #404038",
"@ c #414139",
"# c #434039",
"$ c #41403B",
"% c #43403B",
"& c #42423A",
"* c #43433B",
"= c #44413A",
"- c #45423B",
"; c #42413C",
": c #43423D",
"> c #44413C",
", c #45423D",
"< c #46433C",
"1 c #44433E",
"2 c #46433E",
"3 c #44443C",
"4 c #45453D",
"5 c #47443D",
"6 c #45443F",
"7 c #47443F",
"8 c #46463E",
"9 c #47473F",
"0 c #48453E",
"q c #49463F",
"w c #464540",
"e c #474641",
"r c #484540",
"t c #494641",
"y c #4A4740",
"u c #484742",
"i c #4A4742",
"p c #484840",
"a c #494941",
"s c #4B4841",
"d c #494843",
"f c #4B4843",
"g c #4A4A42",
"h c #4B4B43",
"j c #4C4942",
"k c #4A4944",
"l c #4B4A45",
"z c #4C4944",
"x c #4D4A45",
"c c #4C4B46",
"v c #4E4B46",
/* pixels */
"tttfvzfttddduuueuuddeeuuddduudeuzdt>zzffueuuedduetffzffttftfzttt",
"fffzzzfteuuddddddddddueedddddcddzzzttfffdddddddddttttfffzzzzffzt",
"zffzfftte1eddddcddduueeeudddddddzztt>ttzdcddddddttt7tzfzzzzzfftt",
"zfftttt>;7edddddddu1;w;euddddddddt7>>7tfddddddue77>7ftzzfzfftt>t",
"zzffftt>eeudddddddde11weeddddduutt7>tttzddddudee>>7tfttfzzfft>>>",
"zzztt7>>1uddddcdduew111eeddddduett7>ttfzudddudew7>>tttfzzzzzft77",
"tztt7t>>;1uduedduue1;$;;euuuueewt>7>>>tfdddeue117>>7tfztzztt77>>",
"7tt>O>7>;wdddewee;;$1$;;euuuww1;%>>>%7tfuewee;ow>>>7fzttt7>%O>7>",
"eew;;;e;owdeueeewoo;1;;edeeeee;o%;7;;udueeeewoo;1$oeddueee;;o;e;",
"ue;;$;;$;;eeeude1;o;e;;1eeeeee1;;;;$;eueweee1$$;;$$1eeeee71;;;1;",
"de;;;we;;$;;udde;1;;11;;;1eddw;;;;w;;;1;eddew;;;e;;;;1edu7;1;1u;",
"uw;;;edee1e;uduw;;wwdueee1ddd11;;edue1eeedde;;;wdue1;wdddee;;edd",
"ee;11eddduuuduuew;1eddddeuuueee;eedddddeuuuew;euddddddddueewwedd",
"eeeudueddcddueeeeueuddcdddee7eeedeudcdcdueeeedddeddcdddee1edeeud",
"euedddeedduuddeeddduuuddcddeeefddduudddddueeudcdeeddddueeeddduee",
"dddddddeeddcddddddddueeddddddddddcdeuudddddddddduedddddddeddddue",
"dzzzfttttttzzzzzdzueeee1tzzzzzzzzzft>ttzzzzzzzztttetfzzfffffftft",
"zzzztt7>77tfzzzzddu111;wttzfzzffft>>tttfzzzzzffte>7>tftffffftt77",
"zztftt>>7ttftffzvuee;;1etzttzzffft>>>tttzzffftft>>7ttzztfffttt>>",
"dzzftt>>7tzzffffdeew1;wezzzzzztftt>>7tfzfzfftfttt>tttzzzfffftt>>",
"fttt77>>%>tzzzdtew1;;$$;tzzttfte7>>>>>tfftfttt>>7>>>tzzzft7t77>>",
"ttt>%>>>>7zzz7te;;;;1;;1fztt7f>%%>7>%>tfft7t7O>>>>>>fztttt>>%>7>",
"7t7O%>t>>tfzft7t;$o;w;;efttttt7OO>7>>tzztttttO%>7>%ttttttt>%O>>>",
"t7>>>>7%%777ttff;o;1;;;1t7tftt7;O7>>%ttt>ftt>>;;7>%7ttttft>O>t7>",
"f1;;;1w1$;;1weuww1;;e;;;;1eduw;1;;;;;;1;edde1;;;;;;;1;udtew;;;w;",
"fe11;eudw;1euddee;1uduewe1ddee1;>eufe;euuddu1;;edeweweddfe1;$wuu",
"ueeweedddduueuue1weuddddueudee11eeddduedduueeweddddueuuuee;weeud",
"eeeuuddddddueeeeweuuudddddue1eeuueeuccddeeeeeeeeeddcdduueeeuuued",
"e1edddeeddddddueeuddeuudduddueudddeeddddddueudduuedddeddeeddddue",
"dudcddueududdddddddduueeddddueddddeeeddddddddddddddduuddddddddde",
"dddcddueeeeddddduddueeeedddcdddcddee1edddddddduudeeeuddddddddeee",
"uddddee1;weudddddddee11eedddddcdue1;wedcddddddee11;wddddddduee11",
"qjjqq0==1eudduuu9h99&&&9fzffffftue;;1eeutffftztt>>7tftzfzzffft>>",
"jjjqq00#;uuddddch999&&&9fzffzfffeee1;eudfzzzfftt>>>>tzzfzzztt>>>",
"qqq00=0Xo1uucuuu994&&&&4tfzffff7;11;;;udffttt7>7>%>7tzftttt77>>>",
"qq0=#00=$1udduee9&&&&&&&fvft777%oo;;$eddzt7ttOO>>%%7tzt7tt7>>>7>",
"qq0# =0=$euuue1e&@+&4&&9fff77t>O$;1;;eddzttt>O%>t>>tzftttt>OO7>>",
"qq0##=0#$1ew1uuu&&&&&7&4777ff77%o1;;;wewtttt7>;7>>%7tttttt7>%>t>",
"qq===3q3oo;1euue&&&&&&+&7%7fft7;;1w;;;;;tttt>>>>t>>>>>tfz77>>>t7",
"jq0=37ff11w1ddf74&&9h99777fff771;eddeweetfftt>>eftt7t>fztt777tft",
"ffw11uuuffffffft91wudddcuuduuu11euddduudduuue;wuddddudddfee;eedd",
"u7uuduwufvzftff77uuuuuddcduueeeududddcddeeeeeuuuddddddue7eeuueee",
"f74dcduutfffff7t4dcuuudddddueeudcddudddduueeedduuudddddueeedduue",
"fuuudduwfttzffffdddduuuuddddududcdduueuudddeddddduuueddcddddddue",
"ddudduuu777fzzzzdcuwuwwwududdccdddee;eeudddddcddeeeeeddddcddduee",
"dudduu1177tfzfzzdddu1111udddddddueww1eudcdddddde1;1eudddddddue11",
"dddduw1$7fffffdzdduw$11wudddcdddue;;weudddddddd1;;1eddcdddddee;;",
"ddddu111>7tfffdcddu1111wudcddduude;;;wudddddddue1;;eddddddddue;;",
"uqq94&&&&1udcuud99&&&&+&uddduuuw>e;;;;edeeeueeww;;o;eddudeee;1;;",
"799&&&4&o1uduu1u4&&&&&&&9huue1wo>;1;o1eddee11;;;w;oeeddeeee;o;1;",
"99&+@&4&1uuuuuuu4+@49&&9uuueee1o%;1;;eudueeewoo;e;;eedueee;o$;1;",
"99&&@4&&1119uuuu&@@&4&&9u1eud11;;;;;oweweeeewo;1;;;1eeuuee1;;;11",
"994&@49&;;111uuw&&&&91&&11eudw1;;7w;;;;;edde;;;;1;;;;;edew1;;;e;",
"997&@999111weuu19&499994w1ucuu1;;eeue11eeed1;;;eduee;wudue1;;edu",
"h99&9999uduuuuu14&99hhhhudduee1oeududduueeeee;edddddudueee;eeedu",
"9&99h99hccdddu1u999949ufdduu1eeuduuedddeueeweudueudddueee1euuueu",
"f7tzffffuudcuuuuudcduedddddueudddzttzzzzddeeeuduftzzfffztetfzftt",
"fffzffftuuuuuduuddddduuedddduddczdfttfffcduduuddzftttztzzdzzffft",
"vzzfft7t1wuucducduduueweuddcddddzfttt>tzcddduddutttttfzzzfzztttt",
"fvfff77711uuuucduee1e;1edddcddduft>7t7tfddddddue7>>tttfzzzzttt7>",
"fffff7771euududcddee1;weedddddudztt>>ttfddddueee>>tttttfzzfft7>>",
"fffff7>%11uddducduee;;;eudddddduff>>>7tfdddddeee7>>>tzztzzftft>>",
"fuf777;%o11uuuuue11;1;;1dddueeee777>%>fzddueee;77>>ttzf7ttft77>>",
"e77%%>71;1ucdu1ee;o;1$;;uddewe;oo;>%%ttfue11;o%;7>>>zvtt7t>>O>>>"
};
