/* XPM */
static char *_3d8ee1d70b84abee0e36275cb74f439KyNkHaHiXVoGlGeJ[] = {
/* columns rows colors chars-per-pixel */
"64 64 256 2 ",
"   c #030002",
".  c #0B0001",
"X  c #01000B",
"o  c #0D0109",
"O  c #140202",
"+  c #1B0201",
"@  c #18080B",
"#  c #010313",
"$  c #050B1B",
"%  c #180A13",
"&  c #1B111A",
"*  c #230403",
"=  c #260906",
"-  c #230B0B",
";  c #2A0C0B",
":  c #290702",
">  c #330D0C",
",  c #380605",
"<  c #2A120C",
"1  c #381507",
"2  c #2A0F10",
"3  c #3E0D10",
"4  c #251113",
"5  c #2D1313",
"6  c #2A161C",
"7  c #341413",
"8  c #3B1513",
"9  c #341A1B",
"0  c #3C1C1B",
"q  c #371816",
"w  c #0A1628",
"e  c #191727",
"r  c #091737",
"t  c #271924",
"y  c #381E22",
"u  c #1A2437",
"i  c #1B212D",
"p  c #3C2325",
"a  c #272838",
"s  c #392C34",
"d  c #410A07",
"f  c #461603",
"g  c #450C13",
"h  c #441A15",
"j  c #431C1B",
"k  c #4C1C1B",
"l  c #491717",
"z  c #521C1C",
"x  c #591E00",
"c  c #462506",
"v  c #572804",
"b  c #5A3704",
"n  c #45211D",
"m  c #4B211D",
"M  c #462616",
"N  c #52231E",
"B  c #582918",
"V  c #583614",
"C  c #4C3018",
"Z  c #673B07",
"A  c #6D340A",
"S  c #551F23",
"D  c #4C1F22",
"F  c #452422",
"G  c #4B2523",
"H  c #4B2928",
"J  c #542522",
"K  c #552A24",
"L  c #5A2B25",
"P  c #542C2B",
"I  c #5C2E29",
"U  c #5A2525",
"Y  c #5E312C",
"T  c #563628",
"R  c #482D36",
"E  c #5C3333",
"W  c #563535",
"Q  c #4C342F",
"!  c #632D2B",
"~  c #622D27",
"^  c #63322D",
"/  c #6A332D",
"(  c #67382C",
")  c #633531",
"_  c #6B3632",
"`  c #6C3934",
"'  c #673B38",
"]  c #743B34",
"[  c #743B36",
"{  c #622B30",
"}  c #69430B",
"|  c #784B0B",
" . c #694717",
".. c #754A15",
"X. c #7B5417",
"o. c #6A4E29",
"O. c #775629",
"+. c #7B433A",
"@. c #77443B",
"#. c #6F4F30",
"$. c #7A6336",
"%. c #5F4932",
"&. c #071B49",
"*. c #192D4C",
"=. c #29344A",
"-. c #383342",
";. c #293755",
":. c #323348",
">. c #0F2F62",
",. c #4A3745",
"<. c #673F40",
"1. c #354359",
"2. c #2E425B",
"3. c #3C4D6B",
"4. c #47485B",
"5. c #574D4F",
"6. c #6C4443",
"7. c #744542",
"8. c #794946",
"9. c #675546",
"0. c #71574B",
"q. c #776B5A",
"w. c #746951",
"e. c #46556A",
"r. c #485A75",
"t. c #525267",
"y. c #4C627C",
"u. c #5A657B",
"i. c #6A6A68",
"p. c #777467",
"a. c #6A7479",
"s. c #726E70",
"d. c #85540C",
"f. c #885B18",
"g. c #965C16",
"h. c #8D5310",
"j. c #9A6518",
"k. c #926116",
"l. c #A56C1C",
"z. c #A66919",
"x. c #AA731F",
"c. c #875A26",
"v. c #80493E",
"b. c #8C582E",
"n. c #936B2C",
"m. c #9A6A23",
"M. c #9A712C",
"N. c #936B36",
"B. c #9B753B",
"V. c #886731",
"C. c #A46C24",
"Z. c #AC7422",
"A. c #A5752B",
"S. c #AD7C2B",
"D. c #AA7828",
"F. c #B47C24",
"G. c #B47D2B",
"H. c #B57826",
"J. c #AB7D34",
"K. c #AB7D3B",
"L. c #A47835",
"P. c #AF7535",
"I. c #824A44",
"U. c #86534A",
"Y. c #895854",
"T. c #905F5B",
"R. c #967645",
"E. c #847859",
"W. c #957A53",
"Q. c #8E6C4E",
"!. c #A37B47",
"~. c #B47947",
"^. c #887A66",
"/. c #9B6862",
"(. c #BB8326",
"). c #B5822C",
"_. c #BC852C",
"`. c #BD892E",
"'. c #B78127",
"]. c #AD823B",
"[. c #A88038",
"{. c #B58432",
"}. c #BB8531",
"|. c #BC8A33",
" X c #B2843C",
".X c #BB8C3C",
"XX c #B8863A",
"oX c #B68A34",
"OX c #BD811F",
"+X c #C2862B",
"@X c #C38A2D",
"#X c #C78828",
"$X c #CC922F",
"%X c #C7912F",
"&X c #C48C34",
"*X c #C48B3A",
"=X c #CC9433",
"-X c #C4933C",
";X c #CB953C",
":X c #CC993B",
">X c #C59335",
",X c #D39538",
"<X c #9D824C",
"1X c #9C855A",
"2X c #A6844A",
"3X c #BB8D43",
"4X c #B58846",
"5X c #BB9248",
"6X c #A88A57",
"7X c #B58D53",
"8X c #B89557",
"9X c #AF9256",
"0X c #908471",
"qX c #B99862",
"wX c #AB8C66",
"eX c #C58C49",
"rX c #C49542",
"tX c #C99848",
"yX c #D49949",
"uX c #C89955",
"iX c #D49954",
"pX c #C38F56",
"aX c #CBA155",
"sX c #D2A557",
"dX c #CBA86A",
"fX c #375787",
"gX c #3D72AE",
"hX c #37649D",
"jX c #4A6B8E",
"kX c #49688A",
"lX c #546E8D",
"zX c #576A86",
"xX c #5D748C",
"cX c #59738E",
"vX c #4C6D92",
"bX c #516E92",
"nX c #526E92",
"mX c #4F7194",
"MX c #4E749B",
"NX c #507096",
"BX c #517197",
"VX c #527296",
"CX c #5B7493",
"ZX c #547599",
"AX c #59769C",
"SX c #57789A",
"DX c #5A799C",
"FX c #5B7896",
"GX c #647483",
"HX c #62758B",
"JX c #6B7882",
"KX c #627593",
"LX c #646E85",
"PX c #4A78AC",
"IX c #6387A7",
"UX c #92929C",
/* pixels */
"jXjXjXjXjXhXjXjXjXjXjXjXvXvXjXjXjXvXjXvXvXjXvXmXjXjXmXvXvXjXvXnXnXvXvXvXvXbXvXNXvXvXvXbXbXBXNXNXNXvXNXNXNXVXNXNXNXNXNXNXNXNXBXBX",
"jXjXjXjXjXjXjXjXjXjXjXjXvXjXjXjXjXjXjXvXvXjXvXvXjXmXvXvXbXvXkXnXnXCXCXFXCXCXCXnXlXNXVXlXbXbXNXNXNXNXNXNXNXNXNXNXNXNXVXNXNXNXNXBX",
"kXkXjXhXjXvXjXjXjXjXhXjXvXvXvXjXvXvXvXvXvXvXvXjXvXvXvXmXjXnXzXzXr.1.:.=.a a u e i =.e.u.CXnXbXbXNXNXNXNXNXNXNXNXNXNXNXNXNXNXZXNX",
"kXkXjXjXjXjXjXjXjXjXjXvXvXvXvXvXvXvXbXvXvXvXvXmXjXvXbXCXzX3.a w X o o o o o o o   X # w =.y.CXbXBXNXNXNXNXNXNXNXNXNXNXNXNXNXNXNX",
"jXjXjXjXjXjXvXjXjXvXvXvXhXvXvXvXvXvXbXnXjXvXbXvXlXNXkX;.a $ o - 7 0 n m F n j q < - . X X $ 1.zXCXVXnXbXNXvXNXNXNXNXNXNXNXNXNXNX",
"jXjXjXjXjXvXhXjXjXjXvXbXvXvXvXvXvXvXvXbXNXbXbXlXlXr.u # @ 9 H E ) ( ( / ( ~ U N m j q 4 O o X w ;.cXnXbXNXNXNXNXNXNXNXNXNXNXZXBX",
"jXvXjXjXvXvXvXvXvXvXbXvXvXvXvXvXvXvXvXbXlXvXkXzX1.$ X 6 F P ' ` @.[ ] ] +.] / ~ K N n n 9 - o X # ;.HXCXbXNXNXNXNXNXNXNXNXZXBXMX",
"vXhXvXvXvXvXvXvXjXvXvXvXvXvXvXvXvXbXbXvXlXlXkX=.X @ y H P J ~ / @.@.v.v.v.+.+.( / ^ K n n 9 4 o X # r r.CXbXNXNXNXNXNXMXNXNXNXZX",
"vXjXjXvXvXvXNXvXvXvXvXvXNXvXvXvXvXBXvXlXlXr.=.X % y y 8 8 k J U _ I.U.U.+.+.+.( ~ L K K F 0 9 4 o o X w r.CXbXVXNXNXBXMXNXBXMXmX",
"jXvXjXvXvXvXNXvXvXvXvXvXvXvXvXNXmXvXjXlXy.u X @ 5 j U 7.8.8.8.8.U.Y.Q.U.U.+.+.o.B z h h F j 0 9 4 . X X u y.cXbXNXNXNXNXBXBXBXBX",
"vXvXjXvXvXvXvXvXjXvXvXvXNXvXvXvXmXmXlXlX=.X   5 P 6.Y.Y.T.Y.Y.U.T./.T.U.U.v.8.@.@.` N 8 > > y 9 6 @     # 1.cXNXVXNXNXNXBXmXMXVX",
"vXjXjXvXvXvXvXvXjXvXNXNXvXNXvXNXmXNXlX;.X o 5 P 6.8.0.Y.U.U.U.Y.U.Y./.U.I.@.@.+.7.7.@.7.' 0 7 9 9 @ .   X # 1.cXbXNXNXNXMXVXMXNX",
"jXjXvXvXvXvXbXmXBXmXvXmXvXBXbXNXvXVXr.$ X - Q W E H W 6.6.6.8.Y.U.U.U.I.@.` <.8.7.7.8.6.8.6.j q 9 @       X $ e.cXmXBXBXBXMXBXmX",
"vXjXvXvXBXBXbXmXvXvXmXvXNXBXNXvXvXzXu X O p ' k * > - - ; P { 7.[ / / / ^ ) 8.8.8.8.8.7.6.6.E y 5 - .       X *.cXVXBXBXBXVXBXBX",
"jXvXvXvXBXbXBXNXvXmXmXmXBXVXNXbXVX3.# X 4 W I j 8 W 9 ; * j D U / / N z N ~ ' W ,.R Q W W <.' H 9 < O         w r.bXmXMXBXMXBXBX",
"mXmXvXmXvXBXmXmXNXmXvXmXmXBXNXbXcX*.X . F Y L ^ ! U H D H E 7.Y./.Y.U.' h N D W T.t @ + 2 H P H 0 6 -         X =.cXVXMXZXBXMXSX",
"jXmXmXVXmXBXmXMXmXmXmXmXNXVXVXVXr.w X @ P L _ ] [ [ / _ [ _ 3 k 8.7.' 6.' N K { F ; + = + * j H C q - .       X w y.VXVXVXMXVXVX",
"jXmXmXVXVXmXmXmXmXmXmXNXVXVXmXFX2.# o 9 P ~ ] ] +.I.+./ { U g d S k * 7 ) l S ! J m n G H j 0 H H 9 4 .       X w y.VXVXVXMXVXMX",
"mXmXVXVXBXBXmXBXmXmXmXmXmXmXmXcX2.# o F ~ / ] v.I.v.[ { { S S { S z S U U z ! [ _ ! ! { ) P D H H 0 4 .       X w zXVXmXMXVXMXVX",
"VXmXVXmXMXmXBXMXmXVXNXVXmXmXVXcX1.# % H I / ] [ [ ! S z g g g g , g l k J ^ [ [ [ / / / I G j D F 0 4 .         r zXVXSXVXVXVXMX",
"NXNXNXNXVXVXBXBXCXNXVXVXNXNXNXnXr.e % P ~ ! / ] ~ S g d z g g d , , g z g h I _ [ ] ] / U D n n M y -         X $ e.bXNXSXMXmXSX",
"NXNXNXNXVXmXBXBXNXVXVXmXNXNXNXKXt.& 7 P ! ~ / / ! z g z S { { { { S g 3 > , l z / ] ] ! S j j j 0 q @ .         $ 3.bXZXMXSXSXMX",
"BXBXNXNXNXBXBXBXBXBXZXNXZXCXNXLX:.R P K ~ ~ ~ / / ! { { { U { S S g 3 3 > 3 h l ~ / ! L D j j j q 7 O .         w y.VXZXZXZXBXSX",
"VXVXNXZXZXZXBXNXBXVXBXNXbXCXLXzX% 5 P U I ~ / / ! { { [ [ [ _ { { I S D k h h L ( ~ L U k j 0 0 9 4 @ .       X w y.BXNXZXZXAXSX",
"mXmXcXVXZXCXVXNXNXZXNXNXZXCXcXzXs R S S L I L L ~ ~ ^ / [ [ _ _ ` [ ^ J m k N L L U N m j j 9 7 2 2 - O       X *.jXnXZXZXAXZXZX",
"mXmXVXVXZXZXVXZXZXZXNXNXnXcXKXt.<.<.G j m J B K L ~ / +.I.I.8.+.7.) U k m m N J N N k l j 0 q 5 2 ; 5 5 O     $ 3.cXnXZXAXZXZXDX",
"VXVXVXVXZXnXnXZXNXZXNXAXVXCXLXt.6.6.j q j k k m L ^ ] ] I.I.I.8.7.~ J N m j k h h h 8 8 7 8 7 2 2 7 0 9 4 & # 1.CXFXZXZXAXAXAXAX",
"VXVXFXVXVXnXZXZXZXZXNXZXZXCXzX4.5.R t 6 7 0 j k N Y / / ` _ / _ { S J G h h 8 8 8 8 8 8 7 5 2 ; 5 q 7 7 - . e u.CXVXZXZXMXMXZXDX",
"VXVXSXVXVXVXZXZXZXVXVXVXZXCXzX=.e 4.u.t 6 > > 3 n m K K J K K N N G G n 8 < > < > > > > 2 2 2 ; 7 q @ 7 y @ % u.AXZXAXZXAXBXMXAX",
"VXSXVXVXCXVXZXZXZXAXZXZXVXnXxXkXr.KXKX;.& - - ; ; 7 8 8 8 8 8 8 > > 7 > ; = : : * = = ; ; 2 2 ; 8 j * ; j % i xXnXZXAXAXAXAXAXAX",
"SXVXSXVXVXVXBXSXNXZXZXCXBXVXFXFXAXCXKXr.e 4 - + + + + O O O O O O O + + + + + + + * = = ; - - + 7 H D 5 n % 1.CXCXAXPXAXDXAXAXAX",
"VXVXVXSXVXSXSXBXZXZXZXZXVXVXVXVXNXNXZXzXe 6 6 - * + O . . .     . . . . O O O + + + * = = - @ O * y y y t a LXZXZXAXDXDXDXDXDXAX",
"mXSXVXSXSXBXVXSXSXVXBXSXVXVXZXVXVXZXAXzXa t 9 < - = O . . . . .   . .   . . O O + + * = - - @   . @ e i :.zXCXVXSXSXZXAXAXDXDXDX",
"SXVXSXSXBXSXVXZXBXSXVXSXSXZXSXZXZXZXCXKX-.6 9 q 7 < = + O . . .     .   . . O O O = = = = - o     i t.r.xXCXCXBXZXSXAXAXAXDXPXDX",
"VXVXVXVXVXSXSXZXSXVXVXBXSXBXSXZXVXZXCXKX:.t 9 n n 0 n 9 0 9 5 @ + . . . . . O + + : ; ; < - o   u u.HXFXZXZXZXZXBXZXAXAXAXAXDXDX",
"SXSXSXVXSXVXSXSXSXSXSXSXBXSXFXVXVXVXVXKX4.t p F G G m m F m H n n 5 - @ + + + + * : ; ; = - . a HXCXVXVXZXAXZXZXZXZXAXDXPXZXAXAX",
"SXSXMXSXZXVXZXVXBXBXSXBXBXSXSXVXSXZXVXKX4.t F J P K J m m m m m n n 0 q < ; = - ; = ; ; < - p a.xXFXSXDXAXZXAXAXZXAXAXAXAXAXAXZX",
"mXSXVXVXFXVXZXSXSXSXSXSXSXVXVXcXHXHXGXJXt.t n P T L Y K P K Y T P C G n n 0 0 7 1 < ; ; = O < 5.GXcXSXFXDXZXAXAXAXAXDXAXAXAXAXDX",
"mXSXSXVXZXSXSXSXSXSXSXSXVXcXxXLXa.i.q.q.9.q M K L T Y Y ) ) ) ^ Y T H K J m m m 0 8 1 > < O + 5.a.xXCXVXZXDXAXAXAXAXAXAXDXAXAXAX",
"SXVXmXSXSXZXSXBXSXSXBXSXCXcXa.s.9.Q P %.o.8 h N K Y ^ ^ ( ' ) ' ' ) Y T K J K m m n q 1 < + c 0.w.i.a.HXCXCXFXZXAXAXAXPXDXAXAXAX",
"SXVXSXSXMXSXSXVXDXSXSXSXSXHXp.E.C : 1 ( #.M k N U ) ^ ) ^ ( ( ) ( Y Y K J J N K K m M h 1 , V.N.$.#.9.i.a.GXxXFXAXAXDXAXAXAXDXDX",
"mXIXSXSXSXSXSXSXSXSXSXSXFXGXp.W.V.1 c @.( h h N L I ) ^ ( ^ ^ ^ I L L K J J J K K N m M , ( 7Xm.c.c.O.$.9.q.p.a.LXKXxXKXCXFXDXDX",
"VXcXSXSXSXSXSXSXSXSXSXFXCXa.q.R.7Xc.f 1 1 h N N L ) ) { ^ ^ I ^ ^ I L K J m K I Y K N x d ~.P.g.k.c.M.L.X.V.R.w.w.q.p.a.JXHXKXCX",
"VXSXSXSXSXVXSXSXDXVXFXxXJXp.Q.n.A.pXO.d f z B K I ! ^ I I I I I I I L L K L I I P K B 1 b.eXz.g.g.D.3X5Xj.A.5X5X6X1X1X^.p.s.a.JX",
"mXmXmXIXSXDXSXFXIXmXxXa.p.W.~.P.z.H.eXb.v x B ~ ^ ) E ! P L ! P ^ Y I L L I P P P K f O.pXC.g.g.l..X-XrXj.L.tXtXaX5X9X9X6X1X0X0X",
"IXIXmXmXDXFXFXxXGXa.s.p.R.2XP.}.H.z.H.eXP.A v B Y ' E W P { E { ^ ^ ) Y E I E W Q p I.wXC.g.g.z.&X;X:XtXk. XaXaXaXsXsXsXaX8X9X2X",
"mXcXIXmXIXIXa.p.q.q.R.R.K.XX}.+X+XH.z.H.*X*Xb.A E W ,.,.,.R P { I ! Y E E W R p =.u.^.V.c.h.C.*XyX,XyXXXf.[.aXaXaXaXaXaXtX-X5X5X",
"mXIXmXa.i.a.p.q.1XR.K.J.J.G.+X+X#X#XH.z.H.~.iXqX/.0.t.u.4.,.,.P P P L P H H 6 a a.UXP f c.P.iXiXyXyXG.j.d.D.rX-X-X|.-X:X:X:X:X>X",
"IXIXu.a.p.E.<X<X9X5X4X4X4XXX|.&X#X#X,XH.P.~.B.~ 1 5.4.:.;.1.,.,.R H F F t e s a.s.9.1 * f A h.g.z.z.h.h.| l.:X:X:X=X=X:X=X=X,X:X",
"y.GXa.p.E.<X9XaXaXaXaX5X4XXX+X*X,X,X*X*XeXb.d , * 5 -.u *.3.4.:.s y y t t 5.p.w.%.c , c A ( f.h.g.g.g.g.j.'.=X=X$X%X$X=X=X=X$X=X",
"JXa.E.1X9XaXsXtXtX:XoX'.H.+X+XH.OXiXiX~.+.d d , : : s u &.r &.*.1.:.a s i.p.o.o.O.Z Z ..| h.A.-X:X=X$X,X:X:X>X%X%X%X=X%X#X%X$X$X",
"E.E.1X5X5X-X>X=X>X>X`.(.#XOX#X$Xz.A x f d d d A c.N.0Xi.3.fX>.&.>.>.;.JXp.#.o. . . ...X.f.m.S.5XtXtX;X=X.X|.|.|.`.`.`.'._.@X%X>X",
"<X<X.X>X:X:X:X=X=X@XOXOXOXOX#X,X,XF.A x v A C.*XXX3X9X0XSXPXIXgXhXfXLXs.s C c 1 c V o.V.R.<X2X2X7X7X9X7X4X4X4X4X3XXXXX{.{.{.|.|.",
"oXoX%X%X=X%X=X=X,X$X$X$X$X$X$X,X,XyXyXeXyXiXiXrX&XeXqXwXIXIXgXgXPXAXu.R < 1 < c  . . . . .b b b b b b Z }  .X.c.c.n.M.A.J.].3X5X",
"oXoX%X$X=X=X=X=X$X$X$X$X$X$X,X,X,XyXiXdXiXuXpX4X4XK.n.o.u.IXMXPXAXLXR F C b } M. X3X5X4X5X].].M.n.n.X.X...} } b Z b b b b b b } ",
"'.`.`.`.%X=X:X=X=X&X&X*X-XyXtX,XeXJ.C.f.| ....d.f.n.B.W.0XIXjXVXLX0X0XV b | j.D.S.'._.|.`.`.oX{.{.]. X].[.[.K.L.!.L.!.!.!.!.R.R.",
"'.'.'.x.).*X-XtXyXtXuX7XB.V...} Z Z | f.A.{..X-X-X>XoXoX1Xw.e.y.i.1XqX} k.oXoX'.F.'.'.(.`.`.`.oX{.).).).S.S.A.C.j.m.m.C.A.P.K.XX",
").F.M.m.k.L.3X].M.f.| b Z  .O.N.4X7XuXrX-X*X@X`.`.'.`.oX<X$.9.i.#.f.M.oX:X:X>X'.'.'.F.'.`.`.`.`.`.oX{.).).G.G.H.x.l.z.z.z.Z.H.H.",
"D.D.m.n.V.V c Z ..k.M.{..X-X-X-X}.}._.(._._.+X@X`.`.'.'.[.$.$.w.X.D.rXtX:X:X>X`.`.'.F.'.'.'.'.|.`.).`.)._.}._.G.G.Z.l.j.g.z.Z.C.",
"A.L.B. .c 1  .R.8XtXrX>X@X#X+X+X+X+X+X+X(._.+X_.(.`.'.'.X.[.$.$.L.-X|.|.oX|.>XoX'.'.'.Z.'.'.`.`.`.`.|.`.|.|.}.}.}._.G.Z.z.z.l.x.",
"B.N.C 1 b O.c.f.S.XX`.`.`.#X+X_.+X(.(.F.F.F.+X+X`.`.'.j.[.[.k.[.oX'.).[.).).).oX'.oXoX).D.S.).}.XX`.{.oX{.{.).).{.G.P.H.Z.C.Z.l.",
"O.1 c o.O.| | d.j.)._._.(.(.H.(.F.F.Z.Z.F.F.F.G.`.(.'.l.).[.[.$.[.[.[.[.[.[.2XoX[.[. XA.A.A.J.[.].].{. X].4XK.J.K.J.A.A.D.C.C.l.",
"< c  . .| | | | f.S.).'.(.F.G.F.x.z.z.Z.F.H.G.}.{.).D.S.<X9X<X9X9X9XdXdXdXdXdXqX2X2XuX8X9X2X2X7XqX9XqXqX9X6X6X!.2X!.R.L.L.B.M.n.",
"o.V b Z Z | | d.f.m.Z.Z.F.F.Z.z.j.j.z.H.G.H.}.{.S.S.[.].9X9X9X9X<X9X9X1X9X<X2X<XN.V.1X6XW.R.Q.R.W.1XwXwXQ.Q.Q.6XwX6XwX6X!.!.B.n."
};
