/* XPM */
static char *_2495eb49ee74357a1dc8035c20b2ce6DEzttSVWmVuIDoBx[] = {
/* columns rows colors chars-per-pixel */
"64 64 135 2 ",
"   c #020100",
".  c #090703",
"X  c #070803",
"o  c #0A0A05",
"O  c #090708",
"+  c #0D0D0A",
"@  c #110E05",
"#  c #100F0B",
"$  c #0F110D",
"%  c #141007",
"&  c #13120D",
"*  c #19160E",
"=  c #1C180E",
"-  c #151512",
";  c #181712",
":  c #171814",
">  c #1B1A15",
",  c #1C1D1A",
"<  c #20190F",
"1  c #211D15",
"2  c #211E19",
"3  c #1F201C",
"4  c #252116",
"5  c #292216",
"6  c #23231D",
"7  c #2A251C",
"8  c #2C281F",
"9  c #312A1F",
"0  c #3C2F1F",
"q  c #242522",
"w  c #292722",
"e  c #272823",
"r  c #2C2B25",
"t  c #2D2D2A",
"y  c #322D25",
"u  c #312F29",
"i  c #2F302B",
"p  c #333026",
"a  c #393126",
"s  c #34322C",
"d  c #3A352D",
"f  c #3C382E",
"g  c #353531",
"h  c #393731",
"j  c #373832",
"k  c #3C3A33",
"l  c #373938",
"z  c #3E3D39",
"x  c #42372E",
"c  c #433B2C",
"v  c #483D2C",
"b  c #423D34",
"n  c #4B3D31",
"m  c #413E39",
"M  c #3F4039",
"N  c #54452E",
"B  c #56482E",
"V  c #454136",
"C  c #4A4235",
"Z  c #44423B",
"A  c #4B443B",
"S  c #4D483E",
"D  c #524535",
"F  c #564935",
"G  c #51473B",
"H  c #53493D",
"J  c #594D3C",
"K  c #444441",
"L  c #494641",
"P  c #464845",
"I  c #4C4B44",
"U  c #4C4C49",
"Y  c #534D44",
"T  c #594E42",
"R  c #514E49",
"E  c #4F5146",
"W  c #4F504B",
"Q  c #535146",
"!  c #5C5245",
"~  c #54524C",
"^  c #5A554C",
"/  c #5B584E",
"(  c #565551",
")  c #5A5751",
"_  c #5C5B53",
"`  c #5E5E59",
"'  c #625546",
"]  c #625448",
"[  c #645A4D",
"{  c #685B4F",
"}  c #625D54",
"|  c #6B5F52",
" . c #615F59",
".. c #636056",
"X. c #6D6153",
"o. c #64625C",
"O. c #69655D",
"+. c #6B685D",
"@. c #726556",
"#. c #716857",
"$. c #726659",
"%. c #736A5C",
"&. c #7A6C5C",
"*. c #666661",
"=. c #696661",
"-. c #676863",
";. c #6C6B63",
":. c #6D6C69",
">. c #716E65",
",. c #7B6E61",
"<. c #726F69",
"1. c #6F706B",
"2. c #737266",
"3. c #7C7164",
"4. c #75736A",
"5. c #7A766D",
"6. c #77796E",
"7. c #7A796E",
"8. c #767671",
"9. c #7A7770",
"0. c #7C7B72",
"q. c #7E7D78",
"w. c #817464",
"e. c #857A6B",
"r. c #827E74",
"t. c #7F8078",
"y. c #838276",
"u. c #8C8476",
"i. c #858479",
"p. c #89867C",
"a. c #8B897E",
"s. c #8B8680",
"d. c #8E8B82",
"f. c #908C83",
"g. c #9B9690",
/* pixels */
"6.9.k e (  .` I <.u , R *.R <.u , ~  .R <.d 2 ~  .I 4.s , U o.U 8.h > R o.U <.d > ~ o.I <.h , R  .U >.k : U *.U <.k > U `  .R 4.",
"7.q.s   & & - . =.u   , - .  .y   , ; . o.u   , ; X =.s   , - X =.u   > ; . o.u   > > X  .s   : : . ..s   , : X o.l   - + ; & =.",
"6.q.g   - O - X =.r   q -   =.r   , :   =.u   , :   =.p   , -   =.g   , -   O.u   , -   O.s   , :   *.g   , ,   *.h   - X - # ;.",
"4.q.g   : $ : $ :.r   q > + :.r   q 3 O :.t   , , O :.s   3 , O :.u   q > + ;.s   q , + =.u   q 3 X :.s   , 3 X >.h   : O , , <.",
"6.0.i O , - , X =.t   t , . =.t   e q O -.i   e 6   -.g   q , O -.i O t ,   =.s   t , X *.g   e q   *.g   q q   -.k   , $ 3 - -.",
"7.t.g O , : , X ;.t   i ,   =.r   t 3   -.i   e 3   *.i   e , O *.t O t ,   *.s   t ,   *.g   t q   *.g   e q   *.j   3 $ 3 $ -.",
"6.t.i X , $ ,   =.t   t ,   *.r   t q   *.t   e g K W l e l l U *.P i l t K *.R j g ,   ` t   r e   o.g   q e   *.g   3 O q $ :.",
"6.6.t X , - ,   *.r   t 3   o.r   e q   *.i   t i P ( z e - t P W K q $ q P W K t , ,   _ g   q q   ` g   6 e    .k   , & 6 & =.",
"7.0.s , M S I k <.u & Z I k 2.p & Z U k >.p - M l g l , i O i g l : g O i l l : j 6 U k ;.d & z I k ;.j & M U z >.k # z K L b ;.",
"0.0.z p ..;.2._ 5.u e ..2._ 4.p e ..4.} 6.s t K t l l , l $ i j l , l - g j z 3 j r 6.} 4.d 7 ` 4.} 4.f 6 ..2._ 4.k q _ >.>._ >.",
"7.0.M M 6.i.a.5.9.a u 5.a.2.6.p y 4.f.4.5.s g _ l P *.P i , s P ( P t t i P ` P z k d.4.7.d t 2.a.3.7.f e 2.a.2.r.x r >.i.a.>.4.",
"2.7.k z 9.i.p.4.r.y u 5.a.2.6.s y 5.a.4.9.a g U O : , : $ $ o 3 : , + O $ 3 6 , @ s a.4.0.d r 6.a.4.7.f r 4.a.4.9.h y >.p.a.%.4.",
"6.7.j 7 ~ `  .U 4.p , ( +.E 4.i 3 ~ o.Q } b Z k j s g i j j j i i i s p j s i s r p Q Y Y h 2 R o.R 4.d > ( o.U 4.k > U ....Q 4.",
"7.t.s   - & : X =.y   , :   o.r   , : X E S Z r l j i r 8 i i s t t e r i i t t 6 e Z b m u   , > X o.g   : ;   o.k   - + * & +.",
"7.t.g   - + - X =.r   3 -   +.r   , : X ^ Q E r 6 7 6 > - > q e , : & : 3 e e > & 8 ^ H A t   , ,   o.s   , ,   O.h   - O - & ;.",
"4.q.s   : $ : # :.r   q , + ;.r   q , & / Q S p i e i t 7 e t p t e 6 e r i i i 6 r Q A m y   2 , O ;.s   , , . ;.h   , + , > :.",
"6.0.i X , - , O =.u   i , X =.t   t q O ~ ~ Y u r > 6 t t r 3 6 q i r e 6 6 e i r r ! I Z u   t q   *.s   q q   -.k   , $ 3 - :.",
"7.y.s O : : ,   =.t   t ,   =.t   t 6   R ^ Q a p 6 r s z s r r i j M i e e r g h u ] G m t   e q   o.g   e 3   *.g   3 - 3 $ *.",
"6.0.i O , - ,   =.t   t ,   *.r   t , & ..O.R f z r s s s t $ + $ $ - 3 s i i s u u ^ } R m   e e   *.g   e q   o.g   , O q $ :.",
"7.0.t X > : ,   =.r   t ,    .t   e g g :.O.} d h t r e e ,           $ j s i r 2 r  .O.*.U - q e   ..g   q q X o.j   , $ q $ -.",
"0.0.s > k M K j :.u - z L h >.y & m ) U o.m >.b m k s w t ,           - z z i e 6 r O.} ( t z z Z j ;.j @ M I s ;.k + k K K k <.",
"0.0.z p o.;.;.` 6.a 7  .4._ 4.u q  .8.`  .k *.h g r g t t 3           $ g g p t e r o.( W r U ` 2._ 4.f 6 _ 2._ 2.j 7 ) ;.>.) >.",
"0.0.M M 7.a.a.4.9.s a 5.d.4.5.u u 6.f.9.r.) Y u s e s z z 3           $ i i j j s r ^ ) -.~ K <.a.4.7.f r 2.a.4.0.f t 2.p.p.>.5.",
"6.0.k V 5.i.a.4.9.s p 5.a.4.r.s u 8.s.r.4.^ m r t 6 t s z q           $ r q i z i p I Z I K r 9.d.5.7.f p 4.d.4.7.k t 2.i.s.>.>.",
"8.6.j r ( o.o.~ 4.p 6 ( =.~ <.u 2 ( o.} O.Y L u h r e t j 3   - : -   & t e e u w w Y Y L z , ( =.Q 6.s , ( ;.~ 4.f , ~ o.o.~ 4.",
"0.t.s   & $ : X o.y   , - . o.u   ; q z 4.o.) u h r 7 , 6 : : M P l - + t e > , 2 q ~  .:.R - - ; X  .j   - -   o.k   & + - & -.",
"0.q.g   - + -   =.r   , -   =.r   , z g ) g  .u t t e > 3 > e i g , t $ t r 6 > ; q _ ^ ( t e , :   *.s   , ,   O.f   - X : $ -.",
"6.0.s   : $ , + :.t   e > # ;.r   , K l ` s } y 6 , 6 > > : e p t - t + > 6 e 6 - 2 _ R R t t 3 3 O -.s   , 3 O ;.j   , + , , 1.",
"6.0.s O , - , X ;.t   t , O =.u   e l l =.R ^ q & & > 3 3 o 3 V ^ A 2 X & & : 3 * ; Y } o.I , e q   *.g   q q   *.l   , + 3 - :.",
"q.t.i O , : , X *.t   t ,   *.t   t > >  .m h 7 : & : > 3 o 4 >.r.3.b o & $ * > > > u m W K   e q   *.s   q q   =.l   , - 3 $ -.",
"6.t.i X , - ,   *.r   t ,   *.t   z K # R h w q r j t p i 6 s A c b b 6 e j i i t q y r  .^ + t q   o.s   e e   o.l   3 + q + :.",
"6.6.t X : - ,   =.r   t 3   o.t   P *.; m k d y s V f j M r f M s s j p j z k j k t h k 9.<.& r 6   ` g   6 q    .h   , + 2 + -.",
"0.0.g , M Z L k :.a & Z U j ;.i & W ) & S Z k s k M Z M M p z Z S M M s M Z Z M z t k V q.;.o a U l ;.d $ M I f ;.k $ z Z S j ;.",
"9.0.z p o.+.1./ 6.s 6 ..1._ 4.s 6 *.^ % V k j ; 3 M j s s & 6 k j i s & 3 f j s g & 6 k / V & Q 2._ 4.h 3 ` 4._ 4.k 4 _ +.>._ 2.",
"0.0.m b 7.a.a.2.0.a p 7.a.4.9.a p 4.( O Z z s o = s p r p X ; g p p i X 3 s p p u O > h / p 4 +.d.3.7.d p 4.a.4.7.k p >.i.a.2.2.",
"1.0.z b 4.i.i.4.9.p p 7.a.4.0.p i 1.( + ..S k + 3 M k f M + 2 m k j M @ 3 M j j z # 2 m ;.S > o.a.4.0.f r 1.a.2.7.f r >.i.i.2.2.",
"8.6.z r _ O.O.^ 6.u 7 ) ;.Q 4.a 3 ` ( o Z p e X & i r 8 r @ # s r 7 r @ @ s r 7 t + - d m r q ) +.~ <.h 2 ) ;.~ 4.k , ( +.+.~ 2.",
"6.t.g   & & : X *.r   , : X o.y   k _ & ) V k & 6 Z M f h # q m z j k % 6 M f M x & 6 m r.L 1 x ; X  .g   > > X o.l   - $ = & +.",
"6.0.g   - O :   *.r   , -   o.r   l ~   8 ....o * o.+.>. .@ - *.;.;.o.o - ..+.>.*.# 2  .9.x # h ;   o.g   > ,   o.h   - X - $ ;.",
"4.0.g   , + ; # :.r   e , + ;.r   K <.s ;.a.y.Z S d.a.a.s.m Y f.d.a.p.Z E a.d.a.s.n L f.f.=.) ( ; + :.s   , , O -.h   , O , , 4.",
"6.0.u X , - , O ;.t   t , X =.u   L d.s.s.p.d.f.i.i.i.f.s.f.i.r.i.a.d.d.a.r.i.a.d.d.a.r.s.f.g.) ; X *.s   q q   =.l   , $ 3 - -.",
"7.y.g O : : , X =.t   t , X =.r   u x h h h x k z a u h d h b h p k z z j y y k z b k y s x x s ,   *.g   e q   o.h   , $ 3 - -.",
"6.q.i X > - ,   =.t   i ,   *.r   t s h q x d & & 3 & ~  .Z . .   X   e ` ` t X ; > h u ; u y > 6    .g   e e   o.j   3 + q $ -.",
"6.0.t X > - ,   o.r   r ,    .u   u R ) U  .R O + 6 $ 1.f._           t y.q.h X > 1 m b 1 Z A > 2   ` g   q q   o.k   , + 3 $ -.",
"0.0.d > z M K s >.t & M Z s ;.u & g L U L g ) q M Z k ;.0.~           t 0.8.k ; z h u h 1 b A 6 K g -.g $ k S s ;.k $ k z m k :.",
"9.q.k p ` ;.>.` 5.p 4 ..2._ 4.a r L K I m u ^ u %.;._ ;.t.~           t q.q.m y o.) r d > Z m y 2._ 4.k 4 ..1./ 2.f 6 / :.>.) >.",
"9.q.b z 7.i.p.4.7.p y 5.d.4.5.y g ) m ) ( ` L s a.a.;.4.t.~           e 0.q.Z k 0.-.y h 1 L m d f.4.7.d r 2.a.2.7.f r 2.i.a.>.4.",
"6.9.k k 4.i.a.4.r.y y 5.a.2.r.u u ) u m e Y a d i.i.;.2.t./           e 8.0.m g 6.O.r s > k h s p.4.7.k r 2.i.2.t.f r +.i.i.%.4.",
">.4.k b 5.7.....%.^ ! O.%.+.O.! ) ~ y u * b f f i.y.+.;.6.~   $ - $   q 8.4.b f 5.+.w d > m b d p.>.7.h r 2.i.2.6.f e >.y.y.#.>.",
"o.O.d k 4.O.@ 1 x Y T n G G A G n L s d > L f s y.y.o...;.Z : j K l & 7 ;.O.k d 4.o.y d ; Z b p p.;.5.h 8 ;.y.2.2.M 8 +.t.t.o...",
"~ / s b 7.>.o & r x D F F D D D y x d u > k a j i.i.;.^ ) M 3 l g , t q ) _ d k 5.+.w d 1 h d d d.>.9.h r 2.a.2.6.f r 2.y.i.>.^ ",
"..^ t b 5.+.o . . 2 v x n x v x < s d u > b d a y.y.o./ o.i q p t - t 6 o.^ y k 4.o.r s 1 b f p i.>.5.d 8 +.y.+.6.f 8 ;.t.y.O.! ",
";.A t b 0.;.X     @ y 5 @ @ = @ . h d d : L b a y.p.+.;.^ 6 > C ) L 1 6 4.Z y b 5.+.y d > A b d a.4.6.j r 2.a.2.7.M r >.y.u.+.+.",
"^ k w s +.+.* $ & % < = % * ; % - m d u ; m f p 6.3.[ +.E 7 4 +.9.3.x 2 } d w d ;...r a > z k p 7...6.s 3 o.6...7.a 3 ..2.7.} +.",
"I S W I W / V z b m b Z A A A n m m y d 1 k d 5 F ^ f p 4 8 ^ ..%.o.^ Z x S a 2 8 w s d 1 k d r / E ;.E V E S ^ [ Q A V C A a V ",
"_ +.o.o.` V y p 7 r r a y 9 a y a y a a 1 k d 9 ! J H V 9 r o.>.0.>.} ^ ] T T n y < h d > d k 7 / o._ o...Q } X.4.%.[ C Q ! F V ",
"o.` ) o.;.k r p 6 8 y 4 0 c v c d = d x 2 m b w T H | ! A s :._ _ Z 2.^ H H [ ' H 5 d x 2 m m r o.` _ +.o.} | ~ ..c } [ $.$.X.T ",
"^ Q -./ / Z 4 k f a p 5 f J N N a < a u 1 m x 8 T [ | [ A Z -.W *.j ;._ H [ @.[ H 5 u d > z b p _ E o.) Y  .^ ^ ;.V | | ,.,.| ] ",
"/ _ ;._ o.k 5 F D F D C C A c n a 2 8 y ; u u 7 T T ] | b d ;.o.8.` 1.Y H ! ! [ C 7 8 t ; y u r ( _ -.` ` R ! } %.X.O.~ r.w.] | ",
"E ~ ~ o...k 7 F N B F v y x x b y 6 * 1 ; 1 2 5 ! } G T x y ~ o.*.4.` S ! [ G T b 5 = 4 > > 6 6 Q / ~ o...A ^ 7.5.>.%.[ w.3.X.| ",
"E E o.( ~ Q a H [ J a d L R ) T L Z a d d c b c | %.! G Q V c k d b b C [ %.^ H ! c 4 < 1 4 % 7 ~ E .._ E Q Q ~ } Q } ^ m T ] T ",
"_ o...o./ Q Q [ @.&.v 9 =.9.r.<.../ [ ! ! ^ ! Y +.u.e.^ [ J J [ G n D T $.u.e.! ..H A H V A p 8 ) o.` ` / ~ / ..} o._ Y Y { { ] ",
"...._ +.o.Q J w.w.{ A s :.` _ m 4._ S J [ ! J ! @.e.w.' H X.$.#.{ J J X.@.e.w.' J ! X.X.[ J S a ...._ +...` } o._ O.=.^ H ,.w.| ",
") ~ o.~ ~ _ C ' @.{ C s -._ o.g +.} A ! #.X.[ [ &.&.&.&.$.#.%.#.$.@.$.@.&.&.&.$.%.X.X.2.&.X.S s _ W o.( I ;._ R o.) Q  .n T &.$."
};
